<svg xmlns="http://www.w3.org/2000/svg" viewBox="0 0 65.13117 69.76211" fill="#36393f"><path d="M32.38982,8.38506c2.64778-1.4749,2.9925-1.317,4.53061,1.37966a13.51949,13.51949,0,0,1,1.41312,8.56918c-.4294,3.59882-1.66234,7.00577-2.59634,10.48313-1.1932,4.44237-.45861,5.7416,4.12407,6.97961,2.0574.55581,4.16733.92217,6.21624,1.50455,4.40207,1.25123,8.12779,3.329,10.08245,7.847.69262,1.60093.97014,2.571-.80381,3.57588Q43.9893,55.163,32.72307,61.77918c-1.45851.852-2.26824.54753-3.17879-.84095a13.16793,13.16793,0,0,1-2.27971-9.33973,46.06076,46.06076,0,0,1,2.10863-9.581c1.66344-4.5172.31847-6.59447-4.432-7.77492-2.86335-.71153-5.74188-1.40343-8.5388-2.329a13.11572,13.11572,0,0,1-7.586-6.59851c-.96651-1.79524-1.00425-2.85459.92292-3.90612C13.6331,19.28436,28.65764,10.464,32.38982,8.38506Zm15.5108,42.04077c.52379-.311,1.266-.68315.78643-1.45675a1.58243,1.58243,0,0,0-1.23272-.53185,25.41435,25.41435,0,0,1-6.77664-1.02078c-3.729-.82128-4.61252-2.06374-4.63394-6.0552A7.352,7.352,0,0,0,34.86528,36.706c-3.15088-4.1676-4.71631-8.522-1.89714-13.57734.57266-1.02691.07661-2.17126-1.31509-1.4504-2.598,1.3457-4.979.75663-7.59114.04211-2.78349-.76138-5.71313-1.5141-8.57319.16089-1.54669.90581-1.58428,1.67357-.47308,3.03512,2.45218,3.00463,5.89013,3.89185,9.37887,4.83751,7.73687,2.09716,10.95887,7.91871,8.67089,15.61229C32.36748,47.713,31.51,50.01255,30.7315,52.3357c-.83419,2.48932.91563,4.18543,2.2614,5.60858,1.23556,1.30662,2.60321-.51754,3.82887-1.11C38.44284,56.05066,45.78409,51.68255,47.90062,50.42583Z" transform="translate(0)"/><path d="M29.6631.82923c1.55552-.91038,3.13337-1.43614,4.25225.40939.97055,1.60087.18866,3.16612-.84956,4.48568-.38088.4841-16.415,9.59013-23.80478,13.84858-1.12548.64857-2.19064,1.38834-3.66123.88825-1.109-.37712-2.26793-.589-2.6282-1.89359a2.63712,2.63712,0,0,1,1.55474-3.21427C6.38282,14.30483,25.558,3.23177,29.6631.82923Z" transform="translate(0)"/><path d="M20.73426,59.27733c.86829,1.41631.92814,2.29852-.916,2.373-2.61008.10547-5.22187.2188-7.82518.4271-1.6052.12845-2.59383-.07764-1.88339-2.04053.29921-.82673-.48456-.97071-.97824-1.354a34.004,34.004,0,0,1-6.9426-8.124C-2.01564,44.37939.5589,39.39765,3.87194,34.34429A1.32541,1.32541,0,0,1,5.60608,33.86c.60521.37276.55132,1.13091.44543,1.79144A25.158,25.158,0,0,0,7.39485,48.1503a16.88086,16.88086,0,0,0,4.1076,6.46839c1.23274,1.27584,1.6213,2.0148,2.36131-.08043.46342-1.31209,1.38243-1.4377,2.19163-.60533C17.75023,55.67628,19.2725,57.58716,20.73426,59.27733Z" transform="translate(0)"/><path d="M36.14634,68.89953c-1.52313.88961-3.0198,1.49-4.30556-.26875-.87692-1.1995-.271-3.62822,1.12666-4.80993.3711-.31376,24.02042-14.08382,24.75482-14.08894,1.599-.01115,3.42409-.02967,4.12316,1.88846.6312,1.7319-.44564,2.70812-1.8381,3.50148C56.01738,57.39514,40.11167,66.58353,36.14634,68.89953Z" transform="translate(0)"/><path d="M55.99745,10.12572c-.58321,3.28524,2.40509,4.66486,4.0901,6.16491,4.31385,3.84029,4.53858,8.89047,5.02829,13.81733.18819,1.89338-1.38716,3.90935-3.04352,5.24968a1.06425,1.06425,0,0,1-1.75-.88658c-.08426-1.11777.25816-2.26405.21374-3.38973-.20526-5.20224-1.37871-10.01677-5.70546-13.4892-.75169-.60327-1.63636-1.603-2.47323-.64437-1.57453,1.80367-2.55219.572-3.57-.44727-.80278-.80393-5.559-4.65238-4.82615-6.20748.58849-1.2487,8.18318-.98928,9.97764-1.08589C54.77274,9.16222,55.585,9.18953,55.99745,10.12572Z" transform="translate(0)"/></svg>