<svg xmlns="http://www.w3.org/2000/svg" viewBox="0 0 78.59479 72.06188" fill="#36393f"><path d="M0,64.16787c1.62306.33812,3.07258-.542,4.65886-.67238,4.50436-.37018,8.7367.63587,13.06407,1.6084,9.5748,2.15182,19.21428,4.01658,28.83231,5.97422.58582.11924,1.38807.09821,1.32114.78793-.03873.39907-.848.07436-1.32064.01546-11.20857-1.39708-22.41153-2.82-33.55764-4.68037C8.699,66.48357,4.33463,66.15634,0,65.65128Z"/><path d="M44.94062,2.38189a5.981,5.981,0,0,1,.00311-.7393c.06861-.58-.10874-1.39418.53935-1.60085.72943-.23259.936.55923,1.2314,1.08013,3.703,6.52975,7.34267,13.09675,11.13811,19.57249C64.10468,31.36164,69.7634,42.36885,76.33192,52.85707c.60458.96536,1.417,1.667,2.04992,2.55568.24112.33858.32269.73366.00276.9708-.34749.25756-.60491-.16436-.82394-.37123-2.51675-2.37693-3.7284-5.63255-5.65072-8.40825-4.16965-6.0207-7.78849-12.39038-11.82472-18.502-4.87733-7.38518-9.4865-14.97-14.24728-22.44577A7.78824,7.78824,0,0,1,44.94062,2.38189Z"/><path d="M58.90305,56.68688c1.30791.21221,2.6447.43231,3.983.643.21181.03334.48247.25556.62715-.06047.115-.25127-.05544-.46145-.2583-.62033-.34466-.26994-4.31846-3.05574-5.958-4.18244-.26724-.18365-.71187-.29745-.57659-.72354.13649-.4299,1.17859-.24185,1.32435-.24821,1.52223-.06649,1.54921-.11155.88867-1.46231a2.02229,2.02229,0,0,1,1.08086-3.088,4.95347,4.95347,0,0,1,3.92247-.31879c1.173.41969,2.4037.72684,3.60757,1.08814.19445.05836.38455.18149.39528.37861.0195.35866-.30235.319-.51978.32812-.58339.02451-1.169-.00076-1.752.02837-.32424.01619-.74835-.02-.80559.43535a.78251.78251,0,0,0,.62215.8694c1.24985.391,4.23345,1.24655,4.45671,1.33316.12392.04807.294.17376.30509.27906.03318.31377-1.2732.27073-1.71058.27367-.25466.00172-.53382-.003-.59481.28012-.05755.26711.184.42026.40337.5318a31.09216,31.09216,0,0,0,4.16764,1.70488,4.48944,4.48944,0,0,1,1.68711.731c-.57992.46177-4.24045-.36716-5.5082-.23028-.32337.03491-.76221.08844-.82935.47482-.05262.30283,1.27256,1.24861,1.66052,1.53954a4.75448,4.75448,0,0,1,2.2164,4.86734c-.21984,1.35528.72337,2.38469,1.4469,3.39947,1.40368,1.96871,2.88368,3.88314,4.33928,5.81463.12252.16256.271.32738.10632.49614-.17221.17648-.36585.01386-.49941-.1075-2.87135-2.60935-6.35591-4.58918-8.64082-7.776-1.38207-1.9276-3.29789-2.40737-5.28549-2.98918-.64935-.19007-.92179.03027-.68077.73826a9.091,9.091,0,0,0,1.19754,2.484,1.4369,1.4369,0,0,1-.11346,2.12584,24.32553,24.32553,0,0,1-2.38343,1.67421c-.13642.091-.37049.228-.50136-.02051a.5098.5098,0,0,1,.00863-.40444c.17249-.34788.37883-.67925.57676-1.01424a2.93252,2.93252,0,0,0-.22612-3.51916c-1.03614-1.40578-2.01276-2.85552-3.00878-4.29064-.242-.34865-.64476-.679-.3953-1.16514C57.94867,56.45831,58.46194,56.78153,58.90305,56.68688Z"/><path d="M9.63631,31.18307c3.31948.53861,6.71224,1.0972,10.10877,1.63189.53757.08463,1.22451.64861,1.59171-.15346.292-.63774-.14071-1.17117-.65557-1.57441C19.80649,30.402,9.721,23.33163,5.55979,20.47207c-.67826-.4661-1.80674-.75493-1.4634-1.83633.34642-1.0911,2.99128-.61382,3.36122-.63,3.8634-.16874,3.93189-.28311,2.25544-3.71132-1.73689-3.5518-.812-6.23687,2.74321-7.83737,3.212-1.446,6.35144-2.09848,9.95523-.80909,2.9771,1.06517,6.10058,1.84471,9.156,2.7617.49353.14811.976.46062,1.00323.96093.04951.91026-.76736.80955-1.3192.83274-1.48065.06222-2.967-.00191-4.44662.072-.82292.04111-1.8993-.0508-2.04459,1.10494a1.986,1.986,0,0,0,1.579,2.20652c3.17213.99245,10.74449,3.16375,11.31113,3.38356.31451.122.746.441.7743.70827.08421.79633-3.23137.6871-4.34144.69457-.64633.00435-1.35484-.00756-1.50963.71094-.14605.67793.4671,1.06662,1.02375,1.3497a78.91416,78.91416,0,0,0,10.57748,4.327c1.49028.50321,3.05643.76514,4.28184,1.85529-1.47184,1.172-10.76222-.93183-13.97978-.58444-.8207.08861-1.93449.22447-2.10488,1.2051-.13354.76858,3.22975,3.169,4.21441,3.90734,4.13465,3.10044,6.5181,6.84857,5.6252,12.35329-.55794,3.43972,1.83592,6.05236,3.67223,8.62785,3.56255,4.99658,7.31878,9.85542,11.0131,14.75752.31093.41259.68776.83089.26983,1.25921-.43706.44791-.92854.03519-1.26749-.27284-7.28749-6.62251-16.13129-11.64731-21.9304-19.7354-3.5077-4.89223-8.37-6.10989-13.41457-7.58651-1.648-.48241-2.33949.07683-1.72778,1.87369a23.073,23.073,0,0,0,3.03935,6.3043c1.42186,1.95,1.4587,3.89845-.288,5.39538a61.739,61.739,0,0,1-6.04912,4.24916c-.34625.23091-.94031.57868-1.27247-.05207a1.29387,1.29387,0,0,1,.0219-1.02646c.53334-1.07563,1.19417-2.08906,1.78859-3.13268a7.23531,7.23531,0,0,0-.52909-7.87381C12.77,42.56146,10.178,38.70833,7.532,34.89585c-.61413-.88487-1.63642-1.72326-1.0033-2.95713C7.21409,30.603,8.51678,31.42331,9.63631,31.18307Z"/></svg>