<svg xmlns="http://www.w3.org/2000/svg" viewBox="0 0 64.58728 77.34765" fill="#36393f"><path d="M33.46769.04446A2.48168,2.48168,0,0,1,35.6959.53417a2.26739,2.26739,0,0,0,3.11552.49913A3.21822,3.21822,0,0,1,42.48505,1.54c1.7416,1.32613,3.50915,2.62106,5.30971,3.86527,1.0841.74912,1.29537,1.92182,1.62472,3.0226.83744,2.79888,1.584,5.6249,2.39971,8.43049,1.20226,4.13525,3.777,6.96666,8.10865,7.61309a3.44453,3.44453,0,0,1,3.15346,2.49269c.19332.55174.288,1.13786.47543,1.69206,1.38921,4.10661,1.89859,4.61687-1.91167,6.825-1.22059.70736-1.03571,1.608-.2131,2.52172,1.08932,1.20993,2.24128,2.40418,1.62,4.25263a1.38763,1.38763,0,0,1-1.22853,1.09017,1.31572,1.31572,0,0,1-.957-.75635A5.11737,5.11737,0,0,0,58.45648,39.184c-1.95574-1.091-2.04415-2.56274-.73059-4.342.43122-.58412,1.03892-1.0345,1.502-1.59868.5133-.6253,1.56335-1.22324.80009-2.16363-.68457-.84344-1.60149-.186-2.40545.09924-2.34029.8304-4.61788,1.70349-7.23.93-4.989-1.47726-8.6562-6.13532-9.266-12.06654-.07052-.6859.252-1.54535-.37441-1.98928-.34141-.242-.70011,1.00843-1.41341.45171a3.41411,3.41411,0,0,1-1.64763-2.47017c-.02517-.41323-.12839-.94927-.62855-.858a1.7228,1.7228,0,0,0-.95236.80419c-.52957.87235-.86682,1.87428-1.4628,2.69122-1.23338,1.69064-2.70327,3.137-4.99744,3.14523-4.97523.01792-9.95108.03667-14.92562-.02712-1.54366-.0198-1.87914-.72271-.86178-1.83641a7.61355,7.61355,0,0,0,2.09409-3.77443c.63263-3.41569,2.635-6.147,4.40033-9.01269A12.62137,12.62137,0,0,1,30.19823.69878,32.33982,32.33982,0,0,0,33.46769.04446Z"/><path d="M32.26131,66.38361c-.01793,3.543-.30892,3.88088-3.63544,3.89783q-12.50212.06374-25.00475.001C.26758,70.26585-.00544,69.923.00008,66.40589c.02-12.7472.06841-39.70828.11436-40.43831a2.1241,2.1241,0,0,1,2.19138-2.23886c.4376-.025,17.98566-.0364,26.32028.02042,3.21076.02189,3.54348.34514,3.57172,3.514C32.25657,33.856,32.29392,59.9369,32.26131,66.38361Zm-29.86819-4.899c.02862,2.60049.14487,2.71715,2.77925,2.73457q10.98974.07268,21.98021-.00163c2.53332-.01758,2.62593-.11176,2.6401-2.86219q.08288-16.07712.04172-32.15472c-.00891-2.86712-.23586-3.097-2.98149-3.12177Q16.30313,25.98355,5.752,26.0704c-3.08059.025-3.36737.37894-3.39446,3.7C2.31564,34.9089,2.33333,56.05268,2.39312,61.48466Zm25.3631,6.21341a6.246,6.246,0,0,0,1.61479-.46631,1.80289,1.80289,0,0,0-1.55681-.57648c-6.69724-.00152-22.71045.0132-24.01935.04343-.39365.00909-.83595.10658-.78237.61007.01551.14577.47066.348.72521.34933C7.81291,67.68,23.8257,67.73834,27.75622,67.69807Z"/><path d="M36.78439,56.45665c-.09818-1.59948.12946-2.79192,1.156-3.526a14.12307,14.12307,0,0,0,4.54482-5.205c.4845-.96063,1.48763-1.60754,2.53506-.8203a1.86192,1.86192,0,0,1,.15878,2.76033c-1.26759,1.59375-5.43762,5.583-5.20946,6.29016a17.8085,17.8085,0,0,1,.52886,3.45242c.01672.13831.46367.10823.47939-.05288a13.12,13.12,0,0,0,.06328-1.75319,3.4588,3.4588,0,0,1,1.2575-3.11667c.59147-.449,1.36748-.90764,1.54179.33033.287,2.038,1.97464,2.49077,3.43247,2.94077a147.52591,147.52591,0,0,1,13.7007,5.67454,2.76492,2.76492,0,0,1,1.29611,3.01165,2.278,2.278,0,0,1-2.019,2.00411c-3.67621.91222-15.31592,3.57069-17.42515,4.12084A1.74145,1.74145,0,0,1,40.419,71.34206C39.12547,66.57089,36.78439,56.3781,36.78439,56.45665Z"/><path d="M33.692,24.79438c-.14783-1.70908,1.3344-5.0969,2.76205-5.9277a1.291,1.291,0,0,1,1.57353.29951,8.11,8.11,0,0,1,2.58384,3.92274,22.84682,22.84682,0,0,0,7.09926,10.74933c.70633.59311,1.31172,1.00065.93241,2.11315C46.672,41.73247,43.36157,46.32168,37.5246,48.6813c-1.74389.705-2.436.26278-2.54092-1.62259C34.88638,45.30984,34.18174,30.45632,33.692,24.79438Z"/><path d="M52.7959,35.12484a2.49314,2.49314,0,0,1,3.03173,1.97254c.50637,1.58972.90633,3.52109-.69614,4.36326a32.20538,32.20538,0,0,0-5.3124,3.68369,1.50284,1.50284,0,0,1-1.9919.11913,1.399,1.399,0,0,1-.34107-1.6008c.56873-2.10006,1.17106-4.19135,1.78845-6.2777A2.83391,2.83391,0,0,1,52.7959,35.12484Z"/><path d="M16.66963,72.06928c1.31852.27133,2.94838-.7468,3.91815.86981.213.355-2.41317,3.926-2.91506,4.14142A3.55783,3.55783,0,0,1,13.21663,75.585c-.49928-1.03675-2.07692-1.8575-1.54333-2.94109.54036-1.09735,2.12155-.46105,3.24718-.5713A14.206,14.206,0,0,1,16.66963,72.06928Z"/><path d="M16.03907,42.96876a8.1529,8.1529,0,0,1,8.31344,8.31384c-.0464,4.0472-4.56674,8.41313-8.66439,8.36841-4.13751-.04514-8.49285-4.32887-8.608-8.4665C6.95424,46.66523,11.06489,42.89561,16.03907,42.96876Zm-.10685,13.351a5.6563,5.6563,0,0,0,5.80808-6.16395c-.06539-2.97328-2.92288-5.42789-6.22569-5.34791a5.8285,5.8285,0,0,0-5.82477,5.7968C9.75566,54.16452,12.16329,56.36877,15.93222,56.31977Z"/><path d="M6.47866,35.81161c-1.00566-.00824-2.14779.08787-2.13459-1.46841.01456-1.71528,1.21617-1.70094,2.42527-1.70043,3.78417.0016,16.59219.01411,19.21167-.01231,1.23545-.01247,1.92976.4762,1.90909,1.7766-.01882,1.18335-.82569,1.40177-1.76352,1.40452C22.63371,35.82182,9.53488,35.83667,6.47866,35.81161Z"/><path d="M25.55632,36.93227c.93333.014,2.31968-.31274,2.24,1.26455-.05882,1.1641-1.21531,1.03917-2.06189,1.04846-2.48228.02724-18.54691.03007-19.276.0013-.85453-.03373-1.95172.09447-2.03777-1.09292-.091-1.25615,1.00172-1.20285,1.86032-1.2074,3.35858-.01779,6.71731-.00727,10.076-.00727C16.357,36.931,22.49048,36.88616,25.55632,36.93227Z"/><path d="M28.86679,42.54545c.0058-1.36657-.334-2.23925-1.93781-2.20221-2.77545.06415-5.55316.02723-8.32965.05726a2.84306,2.84306,0,0,0-.81628.27154c.14166.2312.23071.54224.43548.67755a17.23837,17.23837,0,0,0,1.53559.823c4.69012,2.45575,6.8219,6.93793,5.52575,11.61768-1.13165,4.08563-5.74774,6.816-10.509,6.95514-3.32715.09716-7.6546-3.99842-8.51654-6.647A10.42931,10.42931,0,0,1,9.88662,43.13066c1.1734-.8205,2.71253-1.05951,3.63294-2.28577-1.40021-1.05908-6.83856-.45843-8.006-.503-1.41126-.05383-2.16193.4231-2.15064,1.99079q.06481,9.00686-.00116,18.0144c-.01147,1.54681.68506,2.04126,2.1225,2.02356,3.50751-.04334,17.541-.0528,21.04791.01239,1.63648.0304,2.37219-.50684,2.35126-2.26239C28.81338,54.263,28.842,48.40385,28.86679,42.54545ZM5.56753,42.0114a.61142.61142,0,1,1-.61145.61139A.6114.6114,0,0,1,5.56753,42.0114ZM5.55972,60.76994a.61142.61142,0,1,1,.61145-.61145A.61142.61142,0,0,1,5.55972,60.76994ZM26.71786,42.03819a.61142.61142,0,1,1-.61145.61139A.6114.6114,0,0,1,26.71786,42.03819Zm.06525,18.73175a.61142.61142,0,1,1,.61145-.61145A.61142.61142,0,0,1,26.78311,60.76994Z"/></svg>