<svg xmlns="http://www.w3.org/2000/svg" viewBox="0 0 66.60557 64.49811" fill="#36393f"><path d="M18.81114,34.542a9.98958,9.98958,0,0,0,3.239-.82292c.75928-.35073,1.62894-1.56158,2.30192.18169.17081.44249.53931.1921.71592-.16838,1.57984-3.22473,4.93359-2.83066,7.62962-3.43689,1.71978-.38672,2.93488,1.54119,4.23666,2.65688.30155.25844.65914.9525,1.14684.36056.37841-.4593-.11858-.88343-.41888-1.2461-.39355-.4753-.81129-.93049-1.213-1.39916a1.95294,1.95294,0,0,1-.185-2.67935c2.45591-3.421,5.48726-5.923,9.82391-6.57393a3.01207,3.01207,0,0,1,3.40045,1.60088,19.33194,19.33194,0,0,1,1.811,3.63935c1.57047,5.03316,4.52923,9.28656,7.39976,13.59845,2.01758,3.03065,2.11541,3.17688-.58326,5.4887a74.518,74.518,0,0,1-10.30166,7.79742c-1.928,1.14259-2.39194,1.03663-3.379-1.05167-1.05576-2.23363-1.97-4.53222-3.66968-6.39014-.9567-1.04578-.78956-1.85423.31151-2.77585,1.11292-.93154,2.68688-1.35238,3.303-2.85487-1.73585-.28838-2.70593,1.17941-4.0256,1.81687a10.44979,10.44979,0,0,1-6.43408.98082c-3.55588-.54819-6.92112-1.80866-10.44383-2.44984A7.30284,7.30284,0,0,1,19.628,38.70664c-2.1817-2.1824-4.40667-4.324-6.52734-6.56421A4.81442,4.81442,0,0,1,14.46758,24.987a2.08845,2.08845,0,0,1,.69532-.22523c.9039-.06828,6.25274,3.32018,6.73471,4.1409a2.07866,2.07866,0,0,1-.59037,2.93422,5.25133,5.25133,0,0,1-2.60783,1.31215c-.51118.0824-1.43881-.19722-1.37215.66726C17.38176,34.523,18.235,34.477,18.81114,34.542Z"/><path d="M36.67042,7.83232a4.29,4.29,0,0,1,3.98122,2.3806,1.23219,1.23219,0,0,1-.27463,1.6655c-.56091.47475-1.22027.83259-1.78581,1.30262-2.42861,2.01852-2.31736,4.38524.3596,5.90257.93664.5309,2.4505.57533,2.41848,1.89345-.0338,1.39174-1.67446,1.63627-2.59689,2.3978-.94568.78073-1.76685.5113-2.599-.27755a18.8211,18.8211,0,0,1-3.50832-4.72248c-1.03995-1.90538.16275-3.551.90768-5.21367.157-.35053.34123-.7584-.0402-.95771a.96208.96208,0,0,0-.85593.3616c-1.96187,3.53287-3.01359,4.23921-.19284,7.9366.81874,1.07317,1.64981,2.13842,2.51454,3.17451.568.68059,1.2735,1.34566.41842,2.21045-.79379.80281-1.86022,1.66659-2.87632.62405-2.311-2.37109-4.71612-4.7609-5.774-8.00306-.68821-2.10931.98226-3.67249,1.7691-5.426.16394-.36534.97165-.69488.27888-1.15974-.48061-.3225-.94484.15552-1.19846.53265-.68522,1.01887-1.282,2.09674-1.93108,3.14047a4.09654,4.09654,0,0,0,.2132,4.84859c1.41331,2.00857,2.92422,3.94823,4.37224,5.93278.45455.623,1.62743,1.15878.65243,2.10166a2.20382,2.20382,0,0,1-3.0001.48416,11.71656,11.71656,0,0,1-1.91162-1.72786A35.01022,35.01022,0,0,1,21.7799,21.211c-.66322-1.18058-.9501-2.41393-.15206-3.48276,2.45672-3.29032,4.33214-7.011,8.73078-8.59951C32.65219,8.30043,35.11339,9.29684,36.67042,7.83232Z"/><path d="M45.074,59.07454c-.11117-1.50539.88692-2.28339,1.84516-3.06729C50.1489,53.36512,59.244,45.88374,60.48966,44.70543c.8852-.83734,1.63625-.99279,2.37546.15843.9958,1.55082,1.97926,3.113,3.05252,4.60972,1.085,1.513.911,2.59945-.6962,3.65019-2.77775,1.816-13.58826,9.09531-16.24672,10.87027-1.21969.81434-2.06615.68781-2.56022-.71645C45.92666,61.891,45.51764,60.47669,45.074,59.07454Z"/><path d="M61.23634,7.62134a3.71538,3.71538,0,0,0-.41121-2.14742c-.2645-.38717-.51315-.9641-1.10911-.72821a1.30847,1.30847,0,0,0-.57337.84352c-.20547.83552-.22,1.7261-.486,2.53725-1.22413,3.73306-4.15113,5.53674-7.98126,4.63175a4.42081,4.42081,0,0,0-3.74106.97006c-1.96694,1.27744-3.90553,2.59852-5.8547,3.90325a1.60841,1.60841,0,0,1-2.53914-.38238,1.73677,1.73677,0,0,1,.33537-2.60558,63.7021,63.7021,0,0,1,5.189-4.15436,7.30287,7.30287,0,0,0,3.55959-4.93313c.7261-4.306,3.73444-4.99452,7.70731-5.53545,2.2288-.30347,6.07559,2.80088,7.05294,5.29628,1.87123,4.77773-3.22709,11.89957-8.18828,10.86427-3.36133-.70144-5.67145.5301-8.18793,2.04735-.89462.53938-2.228,1.93829-2.73547,1.093-.84061-1.40019,1.22739-1.68826,2.02847-2.40526a23.83114,23.83114,0,0,1,3.4186-2.19051,4.66757,4.66757,0,0,1,3.86824-.60219A6.88976,6.88976,0,0,0,61.23634,7.62134ZM49.7678,7.42645a5.21715,5.21715,0,0,0,.05891.72537c.132.60538.33069,1.36837.96877,1.40707.87527.05309.72931-.82308.71009-1.366-.06567-1.85474.41235-3.371,2.23908-4.2141.14826-.06844.18508-.37827.27368-.57593-.21709-.08289-.44023-.25058-.65035-.2356C51.15664,3.32489,49.836,4.90207,49.7678,7.42645Zm6.03832-.99987c-.18756-.97931-.70433-1.37118-1.54474-.88056a2.61126,2.61126,0,0,0-1.5049,2.98527.77544.77544,0,0,0,1.07889.63325A3.3378,3.3378,0,0,0,55.80612,6.42658Z"/><path d="M7.45014,30.61848c1.81424.26325,3.72527.82131,4.57,2.91243,1.01974,2.52428,1.15136,5.0725-.71525,7.31064a20.33684,20.33684,0,0,1-2.4952,2.174c-.29061.24979-.53111.56212-.33584.94415.27761.54314.76374.52728,1.23975.29078,1.96787-.9777,4.18259-1.67308,4.84746-4.17008.08871-.33317.201-.80106.60193-.6933.19026.05113.37247.62265.34.93581-.32245,3.11291-2.84615,4.08165-5.19453,5.127-1.39607.62141-4.06877-.45379-5.21808-1.87518A1.07349,1.07349,0,0,1,5.2223,41.963c.43566-.43475.92661-.82119,1.31757-1.29174.42933-.51673,1.40306-1.0456.64267-1.7898-.5192-.50815-1.03449.29928-1.47232.6609-.47391.39143-.86925.88919-1.37319,1.231a2.67212,2.67212,0,0,1-4.319-2.024C-.317,35.51967,4.08777,30.55683,7.45014,30.61848Zm-.69125,6.26725a.95343.95343,0,0,0-1.03382-.82279,4.65192,4.65192,0,0,0-3.902,2.86474,1.31552,1.31552,0,0,0,.24489.98917.84466.84466,0,0,0,1.28588.12958q1.57223-1.2468,3.10144-2.54708C6.61557,37.36287,6.66193,37.09264,6.75889,36.88573Z"/><path d="M23.00072,13.722a3.75357,3.75357,0,0,1-.371.60718c-.32693.36844-.70259.69344-1.03228,1.05965-2.70475,3.00437-2.84061,4.08107-.54293,7.44344a42.24161,42.24161,0,0,0,4.55982,6.25391.748.748,0,0,1-.06316,1.2604,1.01739,1.01739,0,0,1-1.34212-.18578,3.90276,3.90276,0,0,1-.73778-1.24968,6.75436,6.75436,0,0,0-3.6554-3.45439,20.53511,20.53511,0,0,1-3.72637-2.38886c-1.44072-1.19863-1.506-2.36482-.30664-3.84974a35.18267,35.18267,0,0,1,6.33334-5.66425C22.41162,13.32931,22.77559,13.26229,23.00072,13.722Z"/></svg>