<svg xmlns="http://www.w3.org/2000/svg" viewBox="0 0 78.01185 65.497" fill="#36393f"><path d="M77.95318,53.84157a16.76633,16.76633,0,0,1-2.13034,7.74983c-1.56184,2.93552-6.12706,4.6218-9.33562,3.61131-3.62038-1.14018-6.08291-3.77594-8.17319-6.72287-1.99463-2.81209-3.43247-6.0342-6.40113-8.08217-.3436-.237-.71853-.79607-.10372-1.2221a1.05046,1.05046,0,0,1,1.34865.17625,21.59988,21.59988,0,0,1,4.72569,5.67442,23.5771,23.5771,0,0,0,5.81611,7.13187,7.51355,7.51355,0,0,0,6.18609,1.83579c.46866-.07541,1.068-.16076,1.07123-.78289a1.0624,1.0624,0,0,0-.56183-.82388c-4.70765-1.31711-6.68577-5.2493-8.65015-9.11651-1.40831-2.77248-3.71567-4.604-6.07221-6.41018A13.25453,13.25453,0,0,1,51.89964,30.853c.75451-1.4671,1.495-1.5882,2.36319-.2359a27.75762,27.75762,0,0,0,7.332,7.22364,73.699,73.699,0,0,1,6.54533,5.455A25.86733,25.86733,0,0,0,74.672,48.11712,5.16046,5.16046,0,0,1,77.95318,53.84157ZM59.24773,41.26476a1.89535,1.89535,0,0,0-2.09131-1.57528,1.49209,1.49209,0,0,0-1.42389,1.75018c.08258,1.21159.89263,1.65355,2.00146,1.52107A1.54183,1.54183,0,0,0,59.24773,41.26476Zm10.33977,9.433c-.8766.16309-1.623.679-1.52982,1.62909a1.97444,1.97444,0,0,0,1.944,1.80088c.91778.06024,1.21574-.68956,1.25352-1.4292A1.737,1.737,0,0,0,69.5875,50.6978Z"/><path d="M16.93381.10356A5.31429,5.31429,0,0,1,20.978.832c3.132,1.84724,6.21679,3.95143,7.39227,7.51366,2.54926,7.72547,8.72325,12.04206,14.78925,16.51987a47.8936,47.8936,0,0,0,5.2053,3.54936c1.66961.92,1.75173,2.04833,1.3557,3.69057-1.15737,4.79926-1.2088,9.56588,1.04175,14.1243a2.83713,2.83713,0,0,1,.14628,2.49574c-1.53894,3.64527-3.04294,7.30661-4.664,10.91523-.62278,1.38639-1.40539,1.466-2.06144.246-3.284-6.10688-8.84121-9.93312-14.04685-14.09723-2.11927-1.69523-4.40077-3.19721-6.675-4.68535a20.46714,20.46714,0,0,0-4.22019-2.27679C11.76915,36.1684,6.02512,31.24724.90608,25.374a2.89721,2.89721,0,0,1-.49125-3.62058C2.52949,16.87781,4.688,12.01166,6.53819,7.03346,8.53171,1.66956,13.31963,1.12973,16.93381.10356ZM13.48216,3.59869a.52066.52066,0,0,0-.73534-.49744c-1.455.40443-2.82425.93974-3.51624,2.46331-1.482,3.26289-2.9859,6.51581-4.476,9.775a.8551.8551,0,0,0,.05131,1.03149,7.29412,7.29412,0,0,0,.69991-.76943Q9.37,9.95155,13.20943,4.28454A3.25155,3.25155,0,0,0,13.48216,3.59869Zm8.613,10.72676a3.14084,3.14084,0,0,0-2.63329-3.12823c-1.33547-.03119-1.59722.86534-1.54344,1.94091.07354,1.47077,1.43667,3.14187,2.5869,3.08269C21.72736,16.15793,22.07929,15.27653,22.09513,14.32545Zm3.327-.539a5.04029,5.04029,0,0,0-3.99892-4.77613,1.25045,1.25045,0,0,0-.95669.38365c-.28648.35942.06724.64514.39615.78816A4.07908,4.07908,0,0,1,23.508,14.838c-.06569.51792-.09222,1.08331.43132,1.20892.74551.17887,1.02295-.51116,1.23264-1.06652A6.34082,6.34082,0,0,0,25.42209,13.78641Z"/></svg>