<svg xmlns="http://www.w3.org/2000/svg" viewBox="0 0 60.08282 62.73548" fill="#36393f"><path d="M35.58418.16079a4.3201,4.3201,0,0,1,.65472.11076A5.55259,5.55259,0,0,1,37.21557.627a3.934,3.934,0,0,1,2.09129,2.5213,10.26538,10.26538,0,0,1,.24807,3.34084c-.05418,1.098.198,2.23774-.38769,3.26465-.8512,1.49255-.02379,2.095,1.30291,2.20133,1.98506.15918,3.98347.19631,5.97657.20528a18.31564,18.31564,0,0,1,6.40855,1.39592,2.37021,2.37021,0,0,1,1.541,1.89572c.23684,1.14671-.943,1.33945-1.68094,1.60477-1.39454.50139-2.87187.77226-4.29036,1.21552-.7083.22134-1.393.51965-.78834,1.548a15.33985,15.33985,0,0,1,1.621,6.37106c.18505,1.78312,1.03213,2.25079,2.67345,2.262a15.02411,15.02411,0,0,1,6.71034,1.651c1.96407,1,1.89494,2.56733-.049,3.55219a18.66023,18.66023,0,0,1-3.16116,1.085,37.7155,37.7155,0,0,1-6.04664,1.21408c-2.57858.321-5.17546.45107-7.76847.59477-1.2.06649-8.98638.355-9.54982.21655.81393.2,5.77063,1.03257,6.44072,1.08917,2.7081.22873,2.776.23365,2.61682,2.79045a19.72383,19.72383,0,0,0,.92357,7.66309c1.15032,3.35666.32078,3.12635,3.91823,3.13257a9.81767,9.81767,0,0,1,2.58282.243c2.76059.7377,3.374.12257,2.45573-2.655-.923-2.79179-2.26741-5.424-3.04508-8.29366-.81516-3.008-.45528-3.6376,2.70357-3.3488,1.94206.17756,2.43,1.55446,3.09695,3.13688,1.90679,4.524,1.84461,9.3454,2.62322,14.0399a1.53709,1.53709,0,0,1-.77923,1.84678c-1.29589.66987-2.43376,1.713-4.00608,1.782a71.15315,71.15315,0,0,0-9.56532,1.81753,7.26324,7.26324,0,0,1,1.31764.59625c.60794.4308,1.0274,1.13811.39045,1.88179a.52032.52032,0,0,1-.39453.16888c-2.8616-.01524-5.72344-.06461-8.58473-.04344a3.2207,3.2207,0,0,1-2.796-1.40017c-1.58534-1.95938-3.32292-2.14245-5.03-.38608a6.09242,6.09242,0,0,1-4.98383,1.83955c-2.117-.05329-4.2383.08692-6.35694.06574-2.32945-.02327-2.53036-.16071-1.50944-2.18958.748-1.48646.0329-1.5899-1.00717-1.8761a16.4201,16.4201,0,0,1-4.87258-1.77051c-.61247-.40269-1.5057-.71384-1.34057-1.541A2.03569,2.03569,0,0,1,8.4797,53.58051c1.621-.39088,2.93052-1.46458,4.82207-1.50943,2.472-.05859,4.67462-1.02013,5.36147-3.99412.34773-1.50564,1.44233-2.8407,2.18916-4.25809a10.95526,10.95526,0,0,0,1.53258-5.644c-.02693-.58588.02562-1.33794-.83381-1.38051a1.21449,1.21449,0,0,0-1.24942,1.13118c-.23306,1.30044.02546,2.68745-1.20646,3.73629-2.82469,2.4049-5.49952,5.00764-8.72882,6.88574-3.33579,1.94-6.748,2.18431-10.11.15361a.53209.53209,0,0,1-.24026-.5826,7.935,7.935,0,0,1,.71253-1.7183c1.6843-2.6539,1.70457-2.66492,3.99312-.67473.59191.51473,1.21181,1.09715,1.93465.52693a35.81864,35.81864,0,0,0,7.57056-8.08352c.94913-1.40774.13368-2.09529-2.10268-2.55223A42.76067,42.76067,0,0,1,6.9209,34.126c-1.07864-.36736-2.4792-.72451-2.53127-2.25328-.05586-1.64046,1.41089-1.98451,2.4675-2.3532a26.47566,26.47566,0,0,1,5.01858-1.04972c3.29031-.46411,3.2955-.42293,4.09825-3.74281a6.4934,6.4934,0,0,0,.27379-1.07356c.16057-2.59376,1.9245-2.789,4.91569-2.40731a40.76492,40.76492,0,0,0,10.14893-.06769c1.25085-.15434,2.64251.18905,3.82264-.51916a7.14944,7.14944,0,0,0,.83109-.67852,3.01859,3.01859,0,0,0-.90894-.31336,120.639,120.639,0,0,1-13.43681-.758,44.95407,44.95407,0,0,1-10.3203-2.07314.8754.8754,0,0,1-.53888-.51934,2.10626,2.10626,0,0,1,1.5431-2.83034,14.13823,14.13823,0,0,1,1.71239-.59749A82.25138,82.25138,0,0,1,26.06179,11.421c2.01974-.07427,2.01946-.08189,1.66292-2.25925A18.559,18.559,0,0,1,27.3361,4.8313a3.94248,3.94248,0,0,1,1.08638-2.56A7.9321,7.9321,0,0,1,31.09278.38244,8.8334,8.8334,0,0,1,32.16.096,10.76175,10.76175,0,0,1,35.08685.104C35.25472.12756,35.42.14288,35.58418.16079ZM14.04169,13.82827a1.80848,1.80848,0,0,0-1.41032.99274c-.09682.57821.64092.89309,1.27928,1.04145a80.512,80.512,0,0,0,10.62457,1.29532,5.92749,5.92749,0,0,0,4.09556-1.46364,1.78378,1.78378,0,0,0,.50234-2.01772c-.23022-.74075-.92036-.69593-1.52031-.705C26.253,12.95083,17.23449,13.80017,14.04169,13.82827Zm28.6642-.92166c-1.359.06063-2.72688.04637-4.07417.20439a1.27341,1.27341,0,0,0-.96626,2.11282,4.07174,4.07174,0,0,0,3.8162,1.86514c3.18481-.25316,6.34065-.88071,9.49938-1.40816.28333-.04731.21854-1.12285-.08078-1.23555A18.87709,18.87709,0,0,0,42.70589,12.90661ZM46.5974,56.78033c.94072-.36538,2.39386.26031,3.60117-.69362.45285-.35781.64409-.25381.27847-1.08925-.98887-2.25949-2.90807-1.87215-4.62383-2.23762-2.377-.50633-2.56683-.37947-2.4588,1.8209C43.498,56.69,43.67569,56.82722,46.5974,56.78033ZM12.227,33.01855c.46336.03283.71138.04067.9569.06937,1.61562.18891,1.75579-.84763,1.84939-2.05535.12228-1.57787-.76145-1.90306-2.04773-1.7531-1.69257.19733-3.29039.89976-5.03714.90105a1.44738,1.44738,0,0,0-1.00988.93978c-.15163.74318.53658.95284,1.146,1.11974A13.88594,13.88594,0,0,0,12.227,33.01855ZM15.41247,56.558c2.09543.00658,5.67707.72721,1.47866-1.002-.31028-.1278-.32711-1.4524-.26219-1.7954.25593-1.35227-.17153-1.06353-1.33417-1.00673A12.84711,12.84711,0,0,0,10.256,54.45407a.52581.52581,0,0,0-.0332.92692A8.60223,8.60223,0,0,0,15.41247,56.558ZM52.73653,32.96141c.79516-.20123,2.11533-.49756,3.40478-.89222a1.04652,1.04652,0,0,0,.59105-.80329,1.07863,1.07863,0,0,0-.63342-.79117q-2.44124-.66395-4.92623-1.165a.94455.94455,0,0,0-1.08416.74C49.54051,31.67714,50.47012,32.9834,52.73653,32.96141Zm-30.68365.18272c-.25213-.23022-.60555-.71892-.7625-.66342-.3868.13678-.92373.4227-.7802.9575.07878.29355.57012.75022.72769.69787A1.02555,1.02555,0,0,0,22.05288,33.14413Zm22.56838.22626c-.29838-.35037-.47447-.71323-.76349-.86394-.596-.31076-.87272.16034-.94731.623-.06972.43242.35821.56227.69684.5451A4.563,4.563,0,0,0,44.62126,33.37039Z"/></svg>