<svg xmlns="http://www.w3.org/2000/svg" viewBox="0 0 59.01701 45.93504" fill="#36393f"><path d="M42.498,20.01c.85879,3.26213-.62062,5.92649-2.53775,8.48863-1.4905,1.992-2.85215,4.08007-4.33072,6.08138a15.51806,15.51806,0,0,0-3.08471,6.23185c-.7235,3.524-5.02352,5.7786-8.44833,4.95239a3.44,3.44,0,0,1-2.04388-1.528,11.42906,11.42906,0,0,0-1.71185-2.39482,2.64844,2.64844,0,0,1-.667-3.07249c.19784-.58.36739-1.16971.57026-1.74782a11.56246,11.56246,0,0,0,.14031-8.543,6.47555,6.47555,0,0,1,.31873-4.72939,3.89464,3.89464,0,0,0-1.04375-4.38993A10.3906,10.3906,0,0,1,19.613,5.53454,40.10812,40.10812,0,0,1,22.5042,2.60941,9.15567,9.15567,0,0,1,33.79386,1.42685c2.99469,1.949,5.78181,4.07007,7.15713,7.688a10.24284,10.24284,0,0,1,.926,3.47017C41.93026,15.0432,43.2818,17.3713,42.498,20.01Zm-2.93383-.40789c.00328-7.68156-1.25794-10.105-5.78652-12.96894C30.35772,4.47038,24.88447,6.07848,23.54132,9.801a7.01729,7.01729,0,0,0,1.00136,7.05358A16.77558,16.77558,0,0,0,31.139,22.18293c1.17036.5004,2.87242.78892,2.38186,2.73537-.29169,1.15738-1.59736,1.32476-3.88957.45475-1.39432-.52922-2.70007-1.28834-4.08345-1.8512-.67409-.27427-1.51091-.50048-2.08261.17311a1.52165,1.52165,0,0,0,.14872,2.03073c1.322,1.68366,1.54262,3.356.0144,5.03418-.69266.76063-.33036,1.34933.28814,1.89018.79777.69762,1.34409.12794,1.89623-.39883a3.37474,3.37474,0,0,0,1.15758-1.85247,2.50144,2.50144,0,0,1,2.0859-1.89588c.71981-.19389,1.44732-.35934,2.1663-.55607,3.171-.86761,4.10928-3.11809,2.49606-5.9669A6.00451,6.00451,0,0,0,31.42125,19.587c-1.30274-.72215-2.57406-1.52019-3.93411-2.11311A6.13655,6.13655,0,0,1,25.059,15.80469c-1.43748-1.75882-1.17008-2.45561,1.13826-3.07656.72094-.19394,1.45591-.35024,2.15691-.60081,1.48029-.52912,1.67208-1.05374.98326-2.46866-1.05-2.15681-.64544-2.82248,1.684-2.85569a4.16911,4.16911,0,0,1,3.8802,1.77674c2.75639,4.82427,4.59663,9.75934,2.32295,15.49178-1.30874,3.29962-2.83884,6.26477-5.599,8.53782-.23513.19363-1.08117.48343-.33891,1.02352.149.10844.68533-.1585.93943-.37434A20.31194,20.31194,0,0,0,39.56412,19.60208Z"/><path d="M.02311,25.55481c-.19574-2.48258.89308-5.14367,1.71873-7.85779.23571-.77485.6784-1.40906,1.60273-1.01784.9136.38667.67277,1.07435.40289,1.84847-1.04906,3.00912-.82389,6.16229-.58788,9.2287.33827,4.39505,3.07389,7.678,5.8398,10.85923a10.78138,10.78138,0,0,0,.89142.66022A.88149.88149,0,0,1,9.921,40.58324c-.41472.54182-.88189.83818-1.55189.34523C3.64632,37.45375-.321,31.86556.02311,25.55481Z"/><path d="M59.017,18.85076c-.43882,2.25174-.404,4.90081-1.8216,7.22587-.38846.63714-.59314,1.53538-1.50523,1.30061-1.15153-.29641-.49249-1.13656-.33458-1.81487.30932-1.32874.56067-2.67089.86411-4.00108,1.30768-5.73244-.71048-10.45974-4.41542-14.68315-.57407-.6544-1.13254-1.32258-1.71211-1.972a.97805.97805,0,0,1-.12232-1.33526.98543.98543,0,0,1,1.59488-.19839c1.52187,1.459,3.36815,2.77585,4.35394,4.55485A23.94665,23.94665,0,0,1,59.017,18.85076Z"/><path d="M54.05231,17.5493a30.92319,30.92319,0,0,1-1.89941,6.89187c-.20026.47456-.49317.89147-1.08569.791-.5532-.09379-.72145-.626-1.00921-1.02206-.4516-.6216-.13676-1.19572.10922-1.74388,1.62643-3.62446.3734-6.78687-1.565-9.83208-.60021-.94292-1.30278-1.82043-1.91008-2.7592a1.75755,1.75755,0,0,1,.27042-2.38465c.77785-.71278,1.36976.09534,1.88905.53637A14.6031,14.6031,0,0,1,54.05231,17.5493Z"/><path d="M5.26546,25.95018c.04931-2.74141,1.46923-4.45684,2.06818-6.45474.1647-.5494.82955-.3192,1.19073.10271a2.58466,2.58466,0,0,1,.24281,2.49851c-1.121,4.27452.20913,7.796,3.15962,10.86755a9.84149,9.84149,0,0,1,.9947,1.11279,1.58586,1.58586,0,0,1-.32349,2.04525c-.6505.74246-1.04251-.14781-1.40693-.48488-1.0975-1.01513-2.05232-2.19384-3.1991-3.14433C5.72371,30.613,5.853,27.89108,5.26546,25.95018Z"/><path d="M44.81068,11.49519a5.86674,5.86674,0,0,1,3.308,3.04587,7.39308,7.39308,0,0,1,.34091,6.73792c-.34593.71055-.72134,1.31551-1.63576,1.21157-.97075-.11034-1.13506-.78043-1.09415-1.599.031-.61992.052-1.24149.04461-1.86192-.01941-1.62427-.04318-3.24632-1.58649-4.32241a2.02411,2.02411,0,0,1-.67746-2.33172C43.63218,11.80231,44.01484,11.575,44.81068,11.49519Z"/><path d="M12.49951,21.41846c.23825.22792.618.43281.73112.73686a3.15753,3.15753,0,0,1,.18176,1.449,6.53279,6.53279,0,0,0,2.05526,6.05891c.56779.51782,1.0288,1.19422.44956,1.94705a2.027,2.027,0,0,1-2.39245.51653c-2.95888-.97766-4.18354-8.3893-1.74829-10.47125A2.23917,2.23917,0,0,1,12.49951,21.41846Z"/></svg>