<svg xmlns="http://www.w3.org/2000/svg" viewBox="0 0 45.83956 60.40455" fill="#36393f"><path d="M20.23753,59.07006a30.93773,30.93773,0,0,1-7.21519-.92c-1.80235-.51467-3.60717-.9828-4.05314-3.2097-.06494-.32427-.04474-1.35742-.40584-.06867-.18566.6626-.57087,1.15509-1.31169.82983-.795-.34906-.8692-1.12478-.8121-1.88833.18373-2.4569.25785-4.93035.60108-7.36522.7543-5.35115,2.30946-10.35132,6.79325-13.893a4.20262,4.20262,0,0,0,.95086-1.11606,1.21747,1.21747,0,0,0,.00148-1.38848,20.10625,20.10625,0,0,1-1.46584,1.55358,5.78994,5.78994,0,0,1-.93937.46611c-.08323-.34921-.35624-.82627-.22109-1.02835,1.8883-2.82352,1.57165-6.69335,4.2943-9.10739.67168-.59554.85264-1.26677.04838-1.8119-.62185-.42149-.69708-1.91143-2.107-.97169-1.37223.91461-1.77266.29735-1.18844-1.118.80925-1.96053.24175-4.38106,2.46892-5.90276,2.16751-1.48094,3.74549-1.58889,5.44521.38841a13.51969,13.51969,0,0,1,1.2322,1.81895c.40574.66736,2.09879-.07848,1.6455,1.37655a2.44622,2.44622,0,0,1-2.37835,1.99891c-1.61785-.15663-1.61494,1.222-2.27878,1.96832-.1185.13323-.20093.5004-.131.56a.77754.77754,0,0,0,.63768.19237c.7868-.32806,3.72976-2.1552,4.25937-1.32587.41054.64287-1.88151,2.90037-2.39066,3.42123-.4636.47425-.36846.8099.30006.99176,1.00807.27423,1.15382,1.25057,1.41519,2.01936.72329,2.12749,1.50582,4.1341,3.93437,4.8727a.95945.95945,0,0,1,.64456,1.17247,1.10206,1.10206,0,0,1-1.05988.8557c-.60539.09041-1.23109.0527-1.83243.15907-.68931.12193-.72582.63485-.28327,1.00214a15.70641,15.70641,0,0,0,2.1504,1.40669,14.94507,14.94507,0,0,1,7.248,9.42836,30.06472,30.06472,0,0,0,2.38909,5.86727c.973,1.905.71608,3.17721-.93464,4.31732a24.89228,24.89228,0,0,1-6.28419,2.95063,2.30542,2.30542,0,0,1-3.18594-1.58978c-.04428-.11411-.80974-3.073-1.96376-4.037-.12606,1.3094.92223,2.212,1.16519,3.398.42211,2.06059-.14624,3.08209-2.17534,3.47278A22.16537,22.16537,0,0,1,20.23753,59.07006ZM15.30671,36.31879c.41039.28449,2.81415,2.61678,3.15771,2.17884.25068-.31957.02833-.65278-.19-.95644-2.3386-3.25285-2.84765-3.27-5.57317-.168-.24159.275-1.19715,1.59223-1.09278,1.74118C12.10162,39.81821,14.43207,37.15873,15.30671,36.31879Zm6.25877-7.11448c-.02481-.39055-.02768-.944-.65982-.90676-.59774.03525-.63278.60084-.618,1.0518.01275.38944-.17941,1.04554.53688.966C21.31621,30.26071,21.55618,29.79614,21.56548,29.20431Z"/><path d="M44.15211,13.4625c-.84385,8-5.06638,32.81844-5.28815,33.64457-.14928.55607-.24734,1.312-1.06405,1.2586-.52719-.03449-.74277-.57543-.96417-1.00322-1.87071-3.61461-2.92536-7.123-2.18232-11.5112,1.30647-7.71556,2.43854-24.65435,2.61043-25.236a2.274,2.274,0,0,1,3.08847-1.74276A4.69824,4.69824,0,0,1,44.15211,13.4625Z"/><path d="M11.74978,8.74991A3.97686,3.97686,0,0,1,9.2487,8.38757c-1.02857-.75234-1.91223-1.697-1.52322-3.09192.45125-1.6181,1.54369-3.02966,3.18765-3.15586,2.45831-.18872,5.01362-.76993,7.14292,1.63266,1.86887,2.10874,6.16866,1.6624,8.56334-.42893C28.902,1.35,34.76391,1.35275,36.7606,3.28508c1.06949,1.035,1.70194,2.19824,1.03662,3.60067a3.18171,3.18171,0,0,1-3.229,1.93806C30.64522,8.71763,15.43028,8.7663,11.74978,8.74991Z"/><path d="M9.72829,30.98832C9.689,33.26121,8.128,35.27085,7.11444,37.4723c-.27685.60131-.81268.30994-.98607-.29744-.101-.35385-2.05661-15.99582-2.9776-23.45079a4.446,4.446,0,0,1,.2078-2.54156,3.07266,3.07266,0,0,1,3.368-1.686c1.57509.10952,1.576,1.27723,1.638,2.39865C8.60246,16.20065,9.483,28.71812,9.72829,30.98832Z"/><path d="M33.38651,9.51a2.31057,2.31057,0,0,1,2.38985,2.31654c.08884.85517-1.42644,21.30134-1.5,23.14758-.02408.60412-.08682,1.33473-.83747,1.44615-.92476.13727-1.25431-.573-1.4112-1.33649-.07345-.35745,1.51671-17.75777,1.56037-20.21831.05323-2.99949-.49344-3.62267-3.53543-3.92354-2.19783-.21739-4.40887-.298-6.6126-.45921-.458-.0335-.99051-.10717-.99018-.70893.00005-.09975.64132-.27844.98887-.28515C25.03494,9.45784,31.66887,9.45645,33.38651,9.51Z"/><path d="M44.61447,52.97158a3.20934,3.20934,0,0,1-1.591,2.75C38.54391,58.431,33.53353,59.52184,28.461,60.38594a.97593.97593,0,0,1-1.16659-.65172c-.22883-.7701.32011-1.14963.92093-1.319,1.40479-.39613,2.86562-.61255,4.24325-1.081,3.13089-1.06466,5.61442-2.79788,6.53387-6.29041.69975-2.658,1.8153-2.92011,3.99856-1.20468A3.711,3.711,0,0,1,44.61447,52.97158Z"/><path d="M9.73881,13.26459c-.20332-3.04846.65736-3.90285,3.80522-3.78181a7.0188,7.0188,0,0,1,1.38365.33505c-.22573.5553-.75338.59117-1.217.63823-2.308.23428-2.57585,1.77277-2.52371,3.68494.09694,3.55493.10027,7.11309.09236,10.66979a6.17736,6.17736,0,0,1-.238,2.89227,5.64231,5.64231,0,0,1-.63239-3.06029C10.28321,23.05364,9.85264,15.4669,9.73881,13.26459Z"/><path d="M40.51792,7.05649c-.83548-.11476-1.0619-.539-.79066-1.03362a34.08259,34.08259,0,0,1,2.2481-3.70782c.73218-1.00553,1.6386-.76547,2.47284.017.80425.75434,1.22,1.61527.342,2.50407C43.569,6.07229,41.8339,6.36,40.51792,7.05649Z"/><path d="M3.255,2.74913C4.345,2.89349,4.51227,3.80791,4.77645,4.5705c.28716.8289,1.806,1.54622.92967,2.34254-1.02067.92749-1.83773-.55439-2.70433-1.05362-.73174-.42155-1.4937-.9163-.98-1.98587C2.28354,3.32863,2.58865,2.81424,3.255,2.74913Z"/><path d="M.86081,50.577c-.46885.00151-.77408-.18944-.85136-.5811a1.54348,1.54348,0,0,1,.13723-.691A.64917.64917,0,0,1,.359,49.00912c1.0754-.84045,2.17058-1.6664,3.632-.9341a.731.731,0,0,1,.29749.95559C3.60894,50.61041,1.98616,50.1125.86081,50.577Z"/><path d="M45.83435,8.17115A1.48115,1.48115,0,0,1,43.878,9.29208c-.75924-.23043-1.80222-.23145-2.02232-1.26742-.14718-.69282,1.60644-1.59052,2.64924-1.41128A1.63534,1.63534,0,0,1,45.83435,8.17115Z"/><path d="M40.62451,2.18668c-.37761.84589-.24685,2.32813-1.4167,2.26917-.921-.04641-1.18314-1.34759-1.22052-2.31915C37.955,1.29731,38.34867.68411,39.26487.72664,40.11784.76623,40.54121,1.33328,40.62451,2.18668Z"/><path d="M23.16878,1.46816c-.03487.91092-.60819,2.40425-1.057,2.38069-1.33461-.07006-1.12418-1.54862-1.38513-2.52966C20.47122.35875,21.07193.0197,21.883.00056,22.77661-.02053,23.1241.55447,23.16878,1.46816Z"/><path d="M24.42949,3.92258a.53182.53182,0,0,1-.46025-.73745,12.729,12.729,0,0,1,.67736-1.663c.21449-.474.54786-.83582,1.08267-.46306.48678.33927.37319.8703.15711,1.31046A2.84181,2.84181,0,0,1,24.42949,3.92258Z"/><path d="M18.34916.86192c.799.208,1.0665.9629,1.52048,1.51522a1.25838,1.25838,0,0,1,.178,1.36975c-.12621.28966-.29138.30973-.56447.093-.77005-.61107-1.62238-1.17321-1.4513-2.35282A2.23371,2.23371,0,0,1,18.34916.86192Z"/><path d="M6.56892,4.7618a2.37441,2.37441,0,0,1-.83-2.20919c.08429-.3972.38724-.7553.75206-.66048.93259.24238,1.01154.917.64245,1.70713C6.96069,3.96905,6.77721,4.33379,6.56892,4.7618Z"/><path d="M4.24618,8.31718a3.94323,3.94323,0,0,1-.92291.59736c-.81015.2191-1.45052.00634-1.56167-.94571-.04109-.352.17982-.87226.50167-.76135A12.311,12.311,0,0,1,4.24618,8.31718Z"/></svg>