<svg xmlns="http://www.w3.org/2000/svg" viewBox="0 0 59.01701 45.93503" fill="#36393f"><path d="M23.20785,11.00047A9.07966,9.07966,0,0,1,23.54134,9.801c1.34314-3.72254,6.81635-5.33063,10.23627-3.16791,4.52857,2.86389,5.7898,5.28741,5.7865,12.969a18.12878,18.12878,0,0,1-1.61536,6.1391l2.32343,2.32337c1.75751-2.43067,3.03638-4.97559,2.22577-8.05463.78387-2.63867-.56769-4.96673-.621-7.42493A10.24133,10.24133,0,0,0,40.951,9.11485c-1.37536-3.61792-4.16247-5.739-7.15716-7.688A9.15568,9.15568,0,0,0,22.50417,2.60942,40.10373,40.10373,0,0,0,19.613,5.53453a10.94249,10.94249,0,0,0-.79877,1.07239Z" transform="translate(0 0)"/><path d="M37.22457,24.07145C39.49825,18.339,37.658,13.404,34.90163,8.57969A4.16905,4.16905,0,0,0,31.02145,6.803c-2.32941.0332-2.734.69885-1.684,2.85571.68884,1.41492.49707,1.93952-.98322,2.46863-.701.25055-1.436.40686-2.15692.60083a7.93636,7.93636,0,0,0-.94611.31568L36.94863,24.74113C37.04073,24.51817,37.13485,24.29765,37.22457,24.07145Z" transform="translate(0 0)"/><path d="M50.7181,42.753l-12.215-12.2149h0l-1.165-1.16492-2.26483-2.26483-1.01044-1.01044h0l-.74182-.74182h0L29.0071,21.04228H29.007l-5.05145-5.05145h0L17.45785,9.49315h0L8.99856,1.034A1.5,1.5,0,1,0,6.87722,3.15532L17.04482,13.3228a9.92511,9.92511,0,0,0,2.61444,6.036A3.89466,3.89466,0,0,1,20.703,23.7487a6.4758,6.4758,0,0,0-.31873,4.72937,11.56246,11.56246,0,0,1-.14026,8.543c-.20288.57813-.37244,1.16785-.57025,1.7478a2.64841,2.64841,0,0,0,.667,3.07251,11.43048,11.43048,0,0,1,1.71185,2.39484,3.43984,3.43984,0,0,0,2.04389,1.528c3.4248.82624,7.72479-1.4284,8.4483-4.95239a15.51835,15.51835,0,0,1,3.08472-6.23187c.37921-.51331.74884-1.03382,1.11865-1.55408L48.59676,44.87437A1.5,1.5,0,0,0,50.7181,42.753ZM29.05624,28.50285a2.50151,2.50151,0,0,0-2.08594,1.89587,3.3742,3.3742,0,0,1-1.15759,1.85248c-.55213.5268-1.09845,1.09644-1.89618.39881-.61853-.54084-.98084-1.12952-.28815-1.89014,1.5282-1.67816,1.30762-3.35053-.0144-5.03418a1.52173,1.52173,0,0,1-.14875-2.03076c.57172-.67359,1.40851-.44739,2.08264-.1731,1.07349.43677,2.10132.989,3.15906,1.46295l2.847,2.847c-.11334.03668-.21173.08215-.33148.11493C30.50356,28.14354,29.776,28.30894,29.05624,28.50285Zm3.16992,4.75562c-.25415.21582-.79047.48278-.93945.37432-.74225-.54.10376-.82989.33892-1.02349a14.82166,14.82166,0,0,0,2.30957-2.39637l.68183.68183A22.32372,22.32372,0,0,1,32.22616,33.25847Z" transform="translate(0 0)"/></svg>