<svg xmlns="http://www.w3.org/2000/svg" viewBox="0 0 47.05989 87.30124" fill="#36393f"><path d="M40.62363,62.84019a.215.215,0,0,0,.39342.11545,36.65481,36.65481,0,0,0,4.905-10.39659A26.00132,26.00132,0,0,0,46.329,38.9001a21.18806,21.18806,0,0,0-1.485-4.137c-.17829-.354-.63239-1.11926-.63239-1.11926a28.41866,28.41866,0,0,0-2.137,8.009q-.28188,1.73643-.55469,3.47432C40.71588,50.24846,40.63145,60.14817,40.62363,62.84019Z"/><path d="M6.43626,62.84019a.215.215,0,0,1-.39342.11545,36.65481,36.65481,0,0,1-4.905-10.39659A26.00132,26.00132,0,0,1,.73094,38.9001a21.18806,21.18806,0,0,1,1.485-4.137c.17829-.354.63239-1.11926.63239-1.11926a28.41866,28.41866,0,0,1,2.137,8.009q.28188,1.73643.55469,3.47432C6.344,50.24846,6.42844,60.14817,6.43626,62.84019Z"/><path d="M19.56377,14.66876l3.82911,6.65462a.16934.16934,0,0,0,.27413,0l3.82911-6.65462a.17284.17284,0,0,0-.13706-.27549H19.70083A.17284.17284,0,0,0,19.56377,14.66876Z"/><circle cx="23.52994" cy="16.99706" r="5" style="fill:none;stroke:#000;stroke-miterlimit:10"/><path d="M2.3669,21.10741A45.07281,45.07281,0,0,0,8.47455,24.219c2.74711.96015,5.3129.73055,8.42358.71342a.04115.04115,0,0,0,.01749-.07964A18.99861,18.99861,0,0,1,7.38682,17.451a.056.056,0,0,0-.10516.0299l.05625,4.02555a.19533.19533,0,0,1-.21861.19667Z"/><path d="M34.87015,25.41078a3.538,3.538,0,0,1-1.42538.98539,7.89149,7.89149,0,0,1-2.51265-.08525,7.90433,7.90433,0,0,1-1.67045-.99049A3.19357,3.19357,0,0,0,31.423,28.06908a4.44285,4.44285,0,0,0,2.07456.38821,3.55279,3.55279,0,0,0,2.33717-1.24206,4.51661,4.51661,0,0,0,1.02423-2.46845,3.33884,3.33884,0,0,0-.05975-1.17088,8.70737,8.70737,0,0,0-1.3777-2.63166c-.14375-.13865-.22883-.26056-.26918-.05414-.02976.15227.13523.46778.17018.626a6.02239,6.02239,0,0,1-.45232,3.89465Z"/><path d="M30.03649,12.84717a.60134.60134,0,0,1-.91926-.03595,7.078,7.078,0,0,0-5.58729-2.81416c-2.54541,0-4.77349.82126-5.99867,2.74876a.59955.59955,0,0,1-.92855.08716L14.87,11.09428a.60612.60612,0,0,1,.09317-.93725,14.937,14.937,0,0,1,8.56682-2.63354,20.285,20.285,0,0,1,8.28261,2.29368.6069.6069,0,0,1,.15189.94829Z"/><path d="M23.52994,23.99706a7,7,0,0,0,7-7l.00591-2.94745a.12409.12409,0,0,1,.06677-.1156A16.09966,16.09966,0,0,0,32.472,12.839c2.56516-2.01283,9.87564-9.61947,10.04429-11.79359.0576-.74252.85865-.63213.886-.124a23.94477,23.94477,0,0,1-.69539,6.3327c-.51813,2.35492-1.27934,4.78043-3.00513,6.46441L26.68906,26.21535a.13942.13942,0,0,0-.03758.13989A6.53746,6.53746,0,0,0,30.268,30.36888a6.28034,6.28034,0,0,0,5.30535-.31545,8.43841,8.43841,0,0,0,1.5783-1.15411,6.84459,6.84459,0,0,0,1.90988-2.61473,69.92568,69.92568,0,0,0,.39775-7.80384A12.09376,12.09376,0,0,1,40.69842,23.974a9.955,9.955,0,0,1-1.01526,5.44444,6.72067,6.72067,0,0,1-3.16138,2.74363,13.30042,13.30042,0,0,1-5.92415.55633.13271.13271,0,0,0-.08974.0281l-5.661,4.43234a.13843.13843,0,0,0,.0924.24573,41.05931,41.05931,0,0,0,9.96789-1.85589,15.2715,15.2715,0,0,0,2.0351-.77668,18.76882,18.76882,0,0,0,2.56164-1.60076c.72435-.5087,1.40282-.99319,2.10851-1.49209a.895.895,0,0,1,1.093.09016q.199.19135.386.39467a.87967.87967,0,0,1,.15183.93968c-.42032.99446-1.331,3.19927-1.694,4.47083-.33716,1.18122-.5664,2.39014-.79516,3.59705-.52161,2.7522-1.15235,6.16632-1.15235,6.16632a6.28769,6.28769,0,0,1-4.47149,3.70984.4227.4227,0,0,0-.41028.475,11.18437,11.18437,0,0,1-1.98877,4.86255,14.76686,14.76686,0,0,1-2.7121,3.08087c4.15-1.2625,6.31024-4.012,8.63843-7.59007a.132.132,0,0,1,.24549.07608c-.15766,1.56282-.59006,6.14837-.55006,9.06294.01532,1.11712.20819,5.19494.15729,5.24957a27.34611,27.34611,0,0,1-3.61267,3.32379,11.854,11.854,0,0,1-5.93629,1.81709.55493.55493,0,0,0-.54.55277l0,2.06188a1.31108,1.31108,0,0,0,1.256,1.45278h.5255l.72519-.23049,1.97525-1.39672a.56221.56221,0,0,1,.85875.28367l1.4797,4.50682a.56218.56218,0,0,1-.53413.73754H31.86275a.56225.56225,0,0,0-.50042.30594l-1.74093,3.399a.5622.5622,0,0,1-.50038.30591H26.78739a.56217.56217,0,0,0-.4505.22589l-2.6998,3.617a.13371.13371,0,0,1-.21429,0l-2.6998-3.617a.56217.56217,0,0,0-.4505-.22589H17.93887a.5622.5622,0,0,1-.50038-.30591l-1.74093-3.399a.56226.56226,0,0,0-.50043-.30594h-2.8447a.56218.56218,0,0,1-.53413-.73754L13.298,74.14939a.56217.56217,0,0,1,.85869-.28365L16.312,75.3898l.32465.10318h1.17137c.45872,0,.83059-.36922.83059-1.07525l0-2.43839a.556.556,0,0,0-.54105-.55382,11.8538,11.8538,0,0,1-5.93529-1.81706,27.34611,27.34611,0,0,1-3.61267-3.32379c-.0509-.05463.142-4.13245.15729-5.24957.04-2.91457-.3924-7.50012-.55006-9.06294a.132.132,0,0,1,.24549-.07608c2.32819,3.57807,4.48848,6.32757,8.63843,7.59007a14.76658,14.76658,0,0,1-2.7121-3.08087,11.18437,11.18437,0,0,1-1.98877-4.86255.4227.4227,0,0,0-.41028-.475,6.28769,6.28769,0,0,1-4.47149-3.70984s-.63074-3.41412-1.15235-6.16632c-.22876-1.20691-.458-2.41583-.79516-3.59705-.363-1.27156-1.27363-3.47637-1.69395-4.47083a.87965.87965,0,0,1,.15183-.93968q.18705-.20312.386-.39467a.895.895,0,0,1,1.093-.09016c.70569.4989,1.38416.98339,2.10851,1.49209A18.76821,18.76821,0,0,0,10.11765,34.792a15.271,15.271,0,0,0,2.0351.77668,41.0581,41.0581,0,0,0,9.9921,1.85733.13752.13752,0,0,0,.09164-.24455L16.552,32.74634a.13273.13273,0,0,0-.08956-.02795,13.30085,13.30085,0,0,1-5.92428-.55633,7.00566,7.00566,0,0,1-3.16138-2.74363c-1.34135-2.117-1.26062-4.47074-.94047-4.31811a18.70267,18.70267,0,0,0,13.7746,1.24442.13864.13864,0,0,0,.05521-.23l-12.908-12.3963c-1.72579-1.684-2.487-4.10949-3.00513-6.46441A22.07662,22.07662,0,0,1,3.72489.11765.13661.13661,0,0,1,3.97117.05689C6.3859,3.45327,9.05544,6.66056,11.72178,9.8637A19.62493,19.62493,0,0,0,14.58785,12.839a16.09966,16.09966,0,0,0,1.86942,1.095.12409.12409,0,0,1,.06677.1156l.0059,2.94745a7,7,0,0,0,7,7"/></svg>