<svg xmlns="http://www.w3.org/2000/svg" viewBox="0 0 56.57873 62.06206" fill="#36393f"><path d="M51.38374,20.22052c.51349,4.69868-1.89285,8.42328-3.95033,12.26111-.05769.1076-.18335.18137-.22955.29139-2.749,6.54622-8.61433,9.43339-14.28811,12.64532a33.21408,33.21408,0,0,1-12.40968,4.33189c-3.05432.3799-3.01686.58819-3.13089,3.86732-.078,2.24259-.17471,4.48506-.30779,6.72487-.0425.71524-.00938,1.74143-.96362,1.71929-.63013-.01463-.60876-.98369-.59232-1.55.05843-2.01312-.53856-3.93951-.69039-5.91238-.29926-3.88845-2.36718-6.68419-5.04526-9.2372-1.051-1.00188-1.40963-.464-1.76633.45411-.22266.57312-.28755,1.20728-.48351,1.79347-.06116.183-.32629.423-.48527.41368-.19638-.01148-.391-.24311-.56329-.40475a.82446.82446,0,0,1-.1704-.32615,5.66927,5.66927,0,0,1,.32516-4.44257c-1.64227-.79011-1.65386-2.27387-1.6552-3.81361A5.40156,5.40156,0,0,1,6.16663,35.221c.72277-.82286,1.32678-2.38051,2.36871-2.05609,1.28252.39932.53245,1.87916.31556,2.87695a2.07772,2.07772,0,0,0,.49324,2.06792c1.26949,1.23186,2.10535,2.34071.48924,4.0348-.52125.5464.61712,1.12815,1.023,1.67109a2.10469,2.10469,0,0,0,.6185.39394c.07064-.30437.30308-.71723.1859-.89566-.81491-1.24084-.66612-2.61355-.60782-3.96626.02434-.56482-.1358-1.3498.6795-1.50119.7096-.13176,1.10863.46932,1.435.98634,1.22615,1.94268,3.19464,3.79774.87647,6.25271-.29738.31493-.41022.71323.07014.84213a6.90192,6.90192,0,0,0,1.81251.14295c.37922-.0023.55812-.13176.37393-.641-1.18455-3.27487.45131-5.97559,1.89672-8.6612.44852-.83337,1.23674-.76917,1.62778.20328a3.80974,3.80974,0,0,1,.22249,1.46371,6.88965,6.88965,0,0,0,2.283,5.29943c1.20473,1.18176.96143,1.66834-.75408,2.05482a13.08808,13.08808,0,0,1-1.43591.16716A5.77267,5.77267,0,0,0,21.6,46.06377c3.88441-.70776,7.615-2.03293,10.50915-4.73019a27.24276,27.24276,0,0,0,6.06005-7.90512,16.624,16.624,0,0,0,.87148-2.4574c.42807-1.41106.32236-2.30958-1.55322-2.48174a21.80776,21.80776,0,0,1-5.32148-1.312c-3.91594-1.41321-6.11454-4.86384-8.64012-7.86935-1.03607-1.23294-2.0836-2.45181-3.13329-3.67287-3.93139-4.57319-12.04376-4.1983-16.14095-1.863a7.16334,7.16334,0,0,0-1.30838,1.28041c.64859.59978.9803-.40407,1.54583-.30721A1.63493,1.63493,0,0,1,5.8552,17.158a21.42978,21.42978,0,0,1-1.32686,2.20544c-.72555,1.25627-1.794,2.43817-.73662,4.05876a.808.808,0,0,1-.44329,1.209,1.39619,1.39619,0,0,1-1.04607-.18275A5.17666,5.17666,0,0,1,.20463,18.53242c.92-3.64428,1.9939-7.25195,6.01217-8.7628,1.0661-.40085,1.162-1.104.63052-2.054a2.34162,2.34162,0,0,1-.1274-2.1655c.35772-.72109.44739-1.805,1.48087-1.9279.973-.11571,1.03756.90867,1.4045,1.47987,1.51677,2.36106,1.52985,2.47068,4.04478,1.57787C21.598,3.85839,29.64647,4.56228,37.665,6.0631a7.4323,7.4323,0,0,0,4.9058-.69618A4.05223,4.05223,0,0,0,45.20417,1.6856a2.08164,2.08164,0,0,1,.5112-.97814A5.726,5.726,0,0,1,46.48074,0c.21032.2954.43638.58087.62658.889a2.792,2.792,0,0,1,.50881.9782,59.0558,59.0558,0,0,0,3.34169,12.81028C51.637,16.53082,51.07826,18.39466,51.38374,20.22052ZM26.76031,16.56a8.09565,8.09565,0,0,0,1.30008,4.65811c2.70084,3.53242,5.89321,5.41513,10.48228,4.39784,3.52251-.78086,5.12344-2.41767,5.04859-6.09488-.08563-4.20628-1.6163-7.66552-5.35468-9.95414-2.63583-1.61365-5.27753-1.95168-8.02028-.48917C27.50639,10.52274,26.5928,12.97757,26.76031,16.56Z"/><path d="M40.0401,52.506c-.67244-.13862-1.574-.05482-1.81407-.41779-1.53918-2.327-3.64035-1.30929-5.62439-1.163-1.83614.13535-3.70668,1.42468-5.50991-.11576.99015-1.66274,2.84175-2.16922,4.2793-3.22847,1.772-1.30569,3.62566-2.49783,5.43363-3.75432,1.26228-.87724,2.09979-.88815,2.82438.78305.9962,2.29768,3.27214,2.86122,5.44963,3.164a24.86866,24.86866,0,0,0,4.41486-.17033c.78454-.03408,1.51549-.12852,1.494-1.17244-.01458-.70973.29832-1.64368-.54608-1.97791a1.4925,1.4925,0,0,0-2.1189.81213c-.46781.9096-.92727,2.9275-2.4919,1.555-.95881-.84107-.14546-2.4495.656-3.28456.77258-.805,1.4197-1.69221,2.15738-2.50909,1.3771-1.525,2.01534-1.46314,3.81369.01826.66271.5459,1.46364.9258,2.10208,1.49523,1.09571.97727,2.39028,1.91453,1.91942,3.71881-.3384,1.29669-2.22158,2.42762-4.0022,2.54953-1.44677.099-3.01438-.45318-4.30977.54161-1.70435,1.30886-3.82879,1.55773-5.6962,2.4489A14.84362,14.84362,0,0,1,40.0401,52.506Z"/><path d="M17.17474,14.6984c1.18572.00778,4.33928,2.62285,4.68168,3.86068a1.415,1.415,0,0,1-.32427,1.37523,16.71345,16.71345,0,0,1-1.55145,1.59082c-.801.69856-.98058,2.42513-2.27256,2.12866-1.46829-.33693-1.75482-2.02148-2.04062-3.2939a16.29538,16.29538,0,0,1-.14618-4.07218A1.48806,1.48806,0,0,1,17.17474,14.6984Z"/><path d="M23.62791,25.4621c-.03511-.66137-.04274-.90757-.06214-1.15283-.08318-1.05167-1.409-2.41242-.3202-3.02115,1.18812-.66424,1.80935,1.15847,2.72395,1.82744a3.52137,3.52137,0,0,1,.77041.78514c.80531,1.12711,2.27464,2.08629,1.0426,3.78361-1.207,1.66275-3.56155,2.68029-5.10122,2.18913-.87595-.27944-.66542-.89635-.31435-1.434A5.64171,5.64171,0,0,0,23.62791,25.4621Z"/><path d="M7.2827,16.04635c.02079-.98454-.11906-2.07324,1.01679-2.55774a4.14123,4.14123,0,0,1,3.561.11349,1.06024,1.06024,0,0,1,.64246,1.213A7.44663,7.44663,0,0,1,9.24058,19.137c-.47958.31682-.92.1008-1.29316-.28421C7.1692,18.04976,7.326,17.02459,7.2827,16.04635Z"/><path d="M31.01973,30.52961c-.01878-2.04843,1.26317-2.97713,3.0529-2.18813a1.25588,1.25588,0,0,1,.72876,1.80116,4.20242,4.20242,0,0,1-1.11395,1.44406c-.60117.49617-.55557,1.95566-1.66846,1.53778C30.96951,32.73043,31.069,31.517,31.01973,30.52961Z"/><path d="M26.814,36.71217a5.95242,5.95242,0,0,1,1.09894.58938,14.39352,14.39352,0,0,0,2.90745,2.192c1.35106.70858,1.37756,1.49353-.1507,2.2214-1.10567.5266-1.67584,2.39382-3.345,1.433-.85612-.49277-1.61424-4.55-1.1396-5.54905A6.07091,6.07091,0,0,1,26.814,36.71217Z"/><circle cx="35.87589" cy="16.60544" r="2.5"/></svg>