<svg xmlns="http://www.w3.org/2000/svg" viewBox="0 0 161.89468 394.28208" fill="#36393f"><path d="M112.457,235.19528l3.56229-.95848c3.87062,4.16014,8.17174,7.46369,7.153,16.64011-.122,1.09835.705,1.91946,1.21169,2.7141,2.28526,3.58394,6.25807,4.55133,6.443,11.51118.08389,3.157,5.66088,2.56623,7.85611,5.56894,1.40274,1.91872,3.03774,3.28392,3.35271,6.55423.437,4.53826,2.0702,7.02355,7.53515,1.616,2.26184,9.16333,4.07871,18.85723,12.32371,20.80848a17.07777,17.07777,0,0,1-1.61652,1.62851c-7.23483-6.38878-15.99988-10.4266-20.30973-21.31511-1.25688-3.17542-3.25787-5.37558-5.99286-6.05347-6.69131-1.65847-9.20144-10.3915-14.73262-13.16119-6.61914-3.31448-8.82767-14.64709-18.33613-12.27452-4.18083-6.44079-8.2597-12.70093-14.27643-16.843-3.359-2.31241-7.47588-7.9191-4.7261-17.93486.94362-3.437.44771-6.06183-1.87981-7.15339-5.31728-2.49379-5.765-11.25233-9.424-16.02017-3.14472-4.0977-3.16933-12.49035-6.0407-16.113-3.99419-5.03928-3.21234-15.04929-8.79446-18.09415-1.6774-.915-1.75566-5.14472-2.37945-8.01592-2.44548-11.25614-7.98541-19.60612-9.30622-32.68125,4.39537,3.23464,1.66045,14.38727,8.23,14.48943,1.01609,3.98772,1.81371,8.663,6.51757,8.18675-2.62875,9.31915-.708,13.66584,4.94451,14.25089.83362.08627,1.43966,1.86277,1.44167,3.24775.01339,9.2417,5.03338,11.20279,10.18771,13.18813a4.91811,4.91811,0,0,1,2.98046,3.708c.78167,4.92876,3.59633,6.4233,6.79371,7.54014,2.55271.89169,4.53728,2.41249,3.54241,7.477-.306,1.55765.27671,2.79737,1.34712,2.8316,2.88238.09217,3.29369,2.89371,2.9274,6.46118-.536,5.22105,1.63314,6.23244,5.00315,4.8608,6.36009-2.58862,8.70443,1.12873,8.64828,8.379-.0321,4.1424.45166,8.11847-.86943,12.88849-.54877,1.98142-.18343,3.68929.98181,4.02851C109.95487,228.08722,112.2968,230.1151,112.457,235.19528Z"/></svg>