<svg xmlns="http://www.w3.org/2000/svg" viewBox="0 0 48.75473 63.02325" fill="#36393f"><path d="M30.94927,60.466c2.227.268,4.85563-.62984,7.5505-.9471.5096-.06,1.08244-.13146,1.3005.3664.31994.73051-.249,1.16486-.83851,1.37976a24.97953,24.97953,0,0,1-13.47248,1.347c-3.70828-.72617-7.59814-1.13862-10.77367-3.59741-.44778-.3467-1.22527-.735-1.63558-.07447-.31034.49956.43968.74374.79643,1.03529a5.9877,5.9877,0,0,1,.874.685c.47935.57692,1.93115.74309,1.16811,1.85408-.52211.76019-1.65421.52173-2.43754.22354a22.07523,22.07523,0,0,1-4.354-2.03126A33.40478,33.40478,0,0,1,.70969,52.44367C.318,51.91046-.46291,51.06192.36833,50.533c.7008-.4459,1.14538.607,1.65532,1.06185C3.59222,52.99409,5.1395,54.41745,6.72334,55.799c.44535.38849,1.16938.93486,1.53915.16589,1.3135-2.73154,3.10743-1.56354,4.96521-.83137.90466.35655,1.38318,1.42822,2.488,1.37191-.09608-1.23916-1.25238-1.65806-1.94834-2.39886a13.08466,13.08466,0,0,1-3.25729-5.73448c-.2698-1.04621.0376-2.25115,1.43638-1.82471,1.1699.35666,1.53847-.105,1.96986-.91256.75648-1.41618,1.56618-2.80508,2.28857-4.23815,2.60994-5.17767,5.21556-10.3578,7.77191-15.562.75962-1.54642,1.33947-3.18032,2.02479-4.76415.66447-1.53565,1.61433-1.593,2.90286-.638,2.6835,1.98881,4.91026,4.51434,7.7005,6.38458,1.73954,1.166,3.29741,2.59952,5.004,3.8191a1.506,1.506,0,0,1,.40432,2.4798c-4.65649,6.10525-7.12579,13.198-9.32829,20.43023-1.13935,3.74121-2.31794,4.20755-5.99314,2.70935a50.00629,50.00629,0,0,1-12.35367-7.411c-.32706-.26159-.83959-.75318-1.24412-.128-.11073.1711.14327.68106.35037.93882a25.79435,25.79435,0,0,0,8.633,6.88805c.93454.472,2.68275.53952,1.65589,2.472-.36044.67833.41593.6639.81.8205C26.44152,60.59033,28.43793,60.41915,30.94927,60.466Z"/><path d="M29.5746,16.37818c1.176-5.7114,2.97561-11.12,7.36243-15.33667,1.39374-1.33968,2.7716-1.2854,4.37008-.41292,3.80344,2.076,4.35385,6.53287,1.07837,9.27368a23.20257,23.20257,0,0,0-6.29551,8.123c-1.15954,2.51115-2.1044,3.38139-3.50136,3.03372C30.89848,20.63832,29.666,18.66418,29.5746,16.37818Z"/><path d="M12.58486,42.54872a1.001,1.001,0,0,1-1.00618.91.98525.98525,0,0,1-.96648-.94082c-.13262-1.47281-.20116-2.95149-.28941-4.42817-.03773-.63129-.10195-1.26662-.80411-1.51444a1.40647,1.40647,0,0,0-1.63044.52455c-.67134.85132-1.09019,1.97091-2.57832,1.53383-1.63685-.48077-1.8437-1.90547-2.16075-3.17715-.77366-3.10306.11147-6.1855.75472-9.132,1.02-4.67223,2.62135-9.22379,4.10226-13.7857a21.836,21.836,0,0,1,2.01556-3.9344,1.04943,1.04943,0,0,1,.93886-.31362c.41221.11417.40262.59522.25528.93753-.34132.79305-.78451,1.54348-1.10751,2.343A68.6396,68.6396,0,0,0,5.84508,26.42547c-.13792.85993-.25417,4.77355.52832,5.3892,1.05512.83015,1.54087-.74554,2.42691-.9999,2.68-.76937,4.00055.11278,4.02635,2.85957C12.83826,34.909,12.64671,40.82737,12.58486,42.54872Z"/><path d="M48.75473,38.09849a6.50326,6.50326,0,0,1-1.83392,2.23937c-2.38814,2.5343-4.499,5.2075-5.4493,8.66342-.33988,1.236-.62347,2.09351,1.16285,2.11958.519.00757.70578.71828.44613,1.18411a10.3795,10.3795,0,0,1-6.31423,5.33042,1.23385,1.23385,0,0,1-.99691-.27639c-.30236-.28489-.07212-.66368.21169-.90682.28019-.24.59507-.43972.89549-.656,1.26313-.90949,2.04535-1.79555.30406-3.07913-1.25485-.925-.9329-2.26923-.29418-3.35654,2.63535-4.48631,5.64111-8.67337,10.16278-11.5029a2.82779,2.82779,0,0,1,1.01256-.3905C48.45583,37.40221,48.74993,37.59644,48.75473,38.09849Z"/></svg>