<svg xmlns="http://www.w3.org/2000/svg" viewBox="0 0 161.89468 394.28208" fill="#36393f"><path d="M108.8526,233.24554c-1.16057,1.02526-2.15991,1.91852-3.17043,2.79892a14.97841,14.97841,0,0,0-5.67919,11.12786c-.48483,5.69159-4.93751,10.90853-9.11045,15.32875-1.48778,1.57594-2.97636,3.00413-3.57786,5.0702a8.30047,8.30047,0,0,1-5.78415,6.19249c-2.73158.88629-3.905,3.20647-3.52564,6.24579,1.07317,8.59783-5.00305,19.03479-13.07494,22.9199-5.06423,2.43749-4.19616,8.34579-6.81755,12.2893-4.03956,6.07693-6.44683,12.99864-13.36908,17.26957-6.24572,3.8535-9.32289,11.14973-12.84574,17.4487-3.3753,6.03516-5.23038,12.81764-11.71419,16.8023-1.89148,1.16241-3.21826,3.90024-3.92957,6.1883a18.78854,18.78854,0,0,1-7.08609,9.81088C5.01962,385.78119,2.52343,389.99024,0,394.28208c2.63275-6.98294,5.765-13.70062,11.69577-18.53327,5.79218-4.71974,5.89778-11.58282,7.35548-17.97258.16068-.70425-.17549-1.75745.21546-2.13887,7.41794-7.23727,6.16323-18.05723,10.94478-26.40542,2.1237-3.70777,4.25111-6.6236,8.71807-7.946,7.86927-2.32958,13.96509-13.00468,13.26233-21.29417a87.59988,87.59988,0,0,1,.24882-13.06363,7.27315,7.27315,0,0,1,3.52149-6.18453,9.43471,9.43471,0,0,0,4.45723-7.04205c1.466-12.85917,10.79639-21.39862,17.29374-31.49189,1.10535-1.7171,1.95821-3.39044,1.47578-5.57782-1.755-7.9576,3.2023-17.91525,10.87887-21.37707.33868-3.93549,2.90661-6.24566,6.64474-8.05629,3.10528-1.5041,3.37856-4.68193,2.092-7.83738-1.40222-3.43913-.70916-6.09065,1.74793-9.15425,4.117-5.13317,4.69445-11.94806,6.13744-18.11618,1.23811-5.29242,4.46566-8.35519,8.43513-10.68686,5.09633-2.99357,6.94279-6.79068,5.44981-12.3881a6.71306,6.71306,0,0,1,1.70173-6.55484c5.53181-6.22484,7.4338-13.22219,4.61794-21.31731-1.12467-3.23325,1.72385-5.04689,3.29642-7.07587A53.41074,53.41074,0,0,0,141.83649,78.6084c-.1202-3.65353-.36962-7.25155,1.8091-10.43069,3.70474-5.40583,2.63221-11.78384,3.7034-17.72424.66658-3.69658,1.47864-7.31142,3.803-10.42748a8.2236,8.2236,0,0,0,1.501-6.02049c-1.14325-10.278,1.24833-20.23179,2.87475-30.25086A24.0847,24.0847,0,0,1,157.13556,0c-.142,2.15-.02128,2.77759-.2388,3.2487-3.26907,7.07991-1.61015,14.053.231,21.09413.88353,3.37893,1.26706,6.86442-.76358,10.1327a3.48476,3.48476,0,0,0-.62051,2.48646c2.99461,8.72034-1.42023,16.5608-2.75862,24.76472a11.34813,11.34813,0,0,1-3.24138,6.43765c-3.77768,3.945-3.88944,9.12063-2.18071,13.86514,1.43476,3.98381,1.7931,7.30494-.67771,10.90819-1.83158,2.671-2.58183,5.879-1.18162,8.91733a17.8432,17.8432,0,0,1-.11,15.25525c-3.18011,6.43176-4.43315,13.58864-8.18695,19.677-1.655,2.68423-1.63913,5.689-2.4128,8.41877a16.499,16.499,0,0,1-4.45439,18.4904c-2.46357,2.05924-3.76127,4.26955-2.58143,7.45631,2.16219,5.84012-.43684,19.87752-3.4154,23.90992-3.90531,5.287-2.825,2.65066-3.19684,8.17882-.17923,2.66435-.75931,4.79906-3.43616,5.50884-6.62388,1.75627-7.91155,6.97773-8.15108,12.63838C109.59049,225.35916,107.34994,229.08017,108.8526,233.24554Z"/></svg>