<svg xmlns="http://www.w3.org/2000/svg" viewBox="0 0 69.23182 67.45541" fill="#36393f"><path d="M7.02563,67.45541c-1.05271-1.64385-3.01094-2.04283-4.40821-3.21092a1.029,1.029,0,0,1-.38236-.5724c-.06022-.54233.43433-.51053.74484-.52768a7.3015,7.3015,0,0,1,3.61671.47851c1.12723.52183,1.674.0134,2.07094-1.22024,1.03342-3.21142.81128-6.57508,1.18875-9.83712.34826-3.00962,1.132-6.029.90338-9.11118a2.6884,2.6884,0,0,1,1.51371-2.675,49.10276,49.10276,0,0,1,6.953-4.07594c1.32067-.56554,1.64869-1.363.79069-2.55684-.28718-.39958-.62992-.761-.89972-1.17108-2.18664-3.32359-2.41124-3.27931-4.8311-.3145-4.46943,5.4759-4.7476,4.84827-9.02055.7584A26.50376,26.50376,0,0,1,.32732,27.0136c-.76087-1.38242-.07609-2.03906.83748-2.74389a.98.98,0,0,1,1.69678.57553c.23231,3.51688,3.08891,4.76613,5.35352,6.56323a1.41853,1.41853,0,0,0,2.23313-.14275c2.90893-3.16978,4.0835-7.18135,5.357-11.12911.20333-.63031-.38165-.79745-.85736-.347-1.673,1.58419-2.98579.68125-4.566-.34126C8.49839,18.22957,7.55931,16.421,6.63243,14.59489c-.94922-1.87015-.17993-3.62477,1.05-5.08154a5.32119,5.32119,0,0,1,4.94085-1.93979c1.20978.16015,1.8419,1.13856,2.42338,2.09634.76073,1.253,1.50351,2.51693,2.25985,3.77265.36849.61179.65887,1.40519,1.607,1.12253a1.99985,1.99985,0,0,0,1.6214-1.74438,41.127,41.127,0,0,1,2.58289-7.97714C25.09356-.45623,29.7573-1.376,33.8889,1.933a19.28448,19.28448,0,0,1,6.5396,9.81839,87.14122,87.14122,0,0,1,3.49313,31.645,73.28631,73.28631,0,0,1-.94141,7.99918c-.66343,3.80945-3.24122,6.81335-6.4566,9.0411-1.69261,1.17271-3.35016.39269-4.76643-.72309a17.46389,17.46389,0,0,1-5.6989-7.612c-.93659-2.51946-2.41156-4.84448-2.76683-7.59578-.17478-1.35348-1.03356-1.91452-2.39473-1.20583a5.70313,5.70313,0,0,1-.67054.3017c-4.19746,1.53514-4.00912,1.54991-4.35746,5.7646a35.63155,35.63155,0,0,1-5.23124,15.52491c-.49894.82916-1.32,1.49868-1.38776,2.56436ZM38.87647,38.97019A85.5571,85.5571,0,0,0,35.055,12.78343a14.33318,14.33318,0,0,0-3.44661-6.03338c-2.34842-2.439-4.72766-2.20841-6.80752.51159-1.01,1.32079-1.2872,2.91073-1.88916,4.38085-.59781,1.46-.14344,2.169,1.46352,2.61a51.32266,51.32266,0,0,1,6.545,2.45365,2.32819,2.32819,0,0,1,1.22869,3.112c-.38958,1.30279-1.494,1.02886-2.46039.95876a4.25427,4.25427,0,0,1-1.08224-.22291c-1.2649-.44152-1.612-.00783-1.21171,1.2088.307.93323.62921,1.86328.88821,2.81015,1.10119,4.02593,3.189,7.7642,3.69116,11.9479A8.98188,8.98188,0,0,0,35.03849,42.58a4.986,4.986,0,0,1,.90647,5.76791,1.93611,1.93611,0,0,1-2.74238,1.08495,7.32145,7.32145,0,0,1-3.48724-2.62877,19.1184,19.1184,0,0,1-2.68-4.81991c-.1332-.456-.25474-1.00319-.92236-.92834a1.37279,1.37279,0,0,0-1.29364,1.128,5.76068,5.76068,0,0,0,.09659,2.1842A23.1972,23.1972,0,0,0,29.335,53.6059a11.03049,11.03049,0,0,0,2.19925,1.943A2.92506,2.92506,0,0,0,35.548,55.1904a8.86475,8.86475,0,0,0,2.49579-4.827C38.94017,46.61112,38.68239,42.77129,38.87647,38.97019Z"/><path d="M65.05863,17.15751a11.04169,11.04169,0,0,0-2.33453-7.3571c-1.88688-2.50433-2.18046-2.50761-4.95786-.70866-.2506.16231-.50892.63189-.85433.16072a.74821.74821,0,0,1,.095-.981,4.33644,4.33644,0,0,1,6.68724-.72419c3.97042,3.459,5.38793,9.89436,3.61275,15.03816-.55827,1.61768-.82648,3.37376-1.88468,4.72683-2.2389,2.86273-3.53529,2.99437-6.31967.67-.43482-.363-1.20143-.89012-.74346-1.45944.61583-.76558.93967.26467,1.26739.56762.74912.69249,1.5462,1.48506,2.55766,1.01284a3.9303,3.9303,0,0,0,1.96973-3.33761c.09835-.73651-.3768-1.07666-1.08692-1.1606a7.64243,7.64243,0,0,0-3.58638.75272c-3.90623,1.47562-8.031,2.28452-11.85878,3.99572-1.45222.64922-2.14781.12929-1.89444-1.41245.43512-2.64764,1.34162-5.20254,1.49655-7.91752.05477-.95982.83878-.88713,1.67316-.77672,1.60761.21273,3.11535,1.78017,4.86592.38337,1.44862-1.15588,1.427-5.3344,1.44956-5.82639.02091-.45687-.0423-.94413.45042-1.228.09721.34652.20708.69007.28943,1.04008.33932,1.442-.92749,3.53491.83307,4.24017,1.31822.52807,2.41434-1.439,3.80919-1.90409.85337-.28453,1.76683-1.56442,2.52623-.67372.83537.97979-.01682,2.04647-.92506,2.80631a6.25323,6.25323,0,0,0-.803.763c-.53449.64028-1.84744,1.16034-1.48237,1.89361.47445.953,1.77452,1.1547,2.9382,1.13225a1.84617,1.84617,0,0,0,2.068-1.66172C65.03884,18.36142,65.03762,17.49351,65.05863,17.15751Z"/><path d="M67.983,11.20307c-.65992-.04878-.73461-.52715-.70372-1.02772a.80615.80615,0,0,1,.94931-.82948c.51549.04563,1.00389.347,1.00321.87253C69.2309,10.94938,68.66156,11.19989,67.983,11.20307Z"/></svg>