<svg xmlns="http://www.w3.org/2000/svg" viewBox="0 0 250 203.09887" fill="#36393f"><path d="M78.6,203.1c94.3,0,145.9-78.2,145.9-145.9,0-2.2,0-4.4-.1-6.6A107.41429,107.41429,0,0,0,250,24.1a104.26084,104.26084,0,0,1-29.5,8.1A51.248,51.248,0,0,0,243,3.8a100.89757,100.89757,0,0,1-32.6,12.4A51.33635,51.33635,0,0,0,123,63,145.84067,145.84067,0,0,1,17.4,9.4,51.20116,51.20116,0,0,0,33.3,77.8,50.268,50.268,0,0,1,10,71.4V72a51.36843,51.36843,0,0,0,41.2,50.3,50.571,50.571,0,0,1-23.2.9,51.307,51.307,0,0,0,47.9,35.6,102.985,102.985,0,0,1-63.7,22c-4.1,0-8.2-.3-12.2-.7a145.094,145.094,0,0,0,78.6,23" transform="translate(0 -0.00114)"/></svg>