<svg xmlns="http://www.w3.org/2000/svg" viewBox="0 0 54.17058 59.25847" fill="#36393f"><path d="M54.056,13.23879c.087,5.0015-.88783,9.28884-1.7799,13.63849a145.61359,145.61359,0,0,1-4.11792,14.5391c-1.69819,5.384-5.31393,9.12457-9.5576,12.34364-2.03177,1.54121-4.42972,2.63756-6.53838,4.14526a6.02732,6.02732,0,0,1-7.2474.27255c-2.82007-1.76-5.79329-3.29029-8.52133-5.17863-5.36291-3.71217-7.867-9.31406-9.5179-15.359-.84362-3.089-1.38923-6.259-2.21771-9.35263A3.53246,3.53246,0,0,1,5.66249,24.313a12.81358,12.81358,0,0,0,1.44327-1.67952,2.697,2.697,0,0,0-.06534-3.69713c-.42587-.52938-.88114-1.39311-1.73515-.68937a.971.971,0,0,0,.10259,1.59208c.71982.47977,1.142,1.02589.75828,1.80824A4.71106,4.71106,0,0,1,3.8712,23.97143c-.92612.39753-1.3782-.43081-1.53809-1.12737C1.67172,19.96255,1.31382,16.9952.45253,14.17934c-1.47-4.80591.9502-8.61384,2.84793-12.56359C3.97908.20335,5.10071-.1419,6.66872.74766c5.41472,3.07186,11.38725,4.593,17.37664,6.07917a16.46282,16.46282,0,0,0,10.48959-.925C39.0779,4.03458,44.04554,3.26077,48.22508.433c1.39338-.94273,2.56347-.25883,3.28761,1.21009C53.40051,5.47253,54.5499,9.45266,54.056,13.23879Zm-3.38889,3.608a30.7627,30.7627,0,0,0-1.50192-9.04735c-1.244-2.54648-1.95092-2.9018-4.63794-2.02663-2.458.80057-4.87627,1.72386-7.30812,2.60395-2.66692.96517-5.3428,2.23809-8.19729,2.03505-3.775-.26853-5.8132,2.19069-8.11,4.38575-.35854.34266-.74556.84723-.53168,1.29284.84647,1.76362,1.512,3.65993,3.01542,5.01668a.961.961,0,0,0,1.33058-.14949c.65791-.61543,1.20539-1.327.86192-2.264-.2818-.76883-.76907-.15152-1.16732-.02259-.304.09843-.72936.47033-.82515-.14163-.16533-1.05623.694-1.51124,1.39569-1.96947a1.20957,1.20957,0,0,1,1.86775.4736,3.57523,3.57523,0,0,1-.1368,4.417c-3.17361,4.37144-3.09929,4.42109-4.03892,9.50193-.15617.84447-.42421,1.6678-.62775,2.504-.43667,1.794-.923,3.5786-1.27762,5.38888-.26453,1.35021-.00735,2.49815,1.72794,2.584a2.43276,2.43276,0,0,1,2.2544,2.10529c.96953,3.46026,2.80327,6.55663,4.12,9.87069.29816.75045.096,2.29386,1.468,1.96553,1.02651-.24565,1.19532-1.4918,1.0894-2.51413-.088-.84915-.425-1.67628-.47976-2.52427-.11449-1.774,1.277-2.56912,2.49133-3.364,1.25356-.82058,2.05237.23072,2.82824.98571.40746.39649,1.02994.89985.406,1.53859a.98869.98869,0,0,1-1.34764-.04642c-.76785-.65652-1.53652-.9557-2.11129.09569-.55984,1.02408.14308,1.89755.70686,2.66375.75129,1.02106,1.188-.106,1.73963-.376.219-.10715.4014-.28671.61466-.4084,3.88724-2.21826,3.90294-2.22824,1.40281-5.7628-.77214-1.09161-1.31213-2.25382-.29434-3.342.90218-.96458,2.1374-1.5793,3.03523-2.62121.38851-.45085,1.17792-.172,1.62056.35768a1.05746,1.05746,0,0,1,.21695,1.344c-.43463.59089-.98252,1.09749-1.46866,1.65179-.24429.27856-.50422.66539-.24585.96466a1.25459,1.25459,0,0,0,.97227.33359,4.9016,4.9016,0,0,0,4.39833-3.376c1.5293-4.3138,1.90373-8.89938,3.21715-13.2611.08084-.26849-.12291-.87309-.2972-.91755-.39988-.102-.59505.30919-.691.68135-.70964,2.75411-3.3289,3.4243-5.2492,4.88426-2.60828,1.983-4.62746.10926-6.80925-.84385-.45158-.19727-.89536-.41243-1.34244-.62-4.23-1.9636-4.23-1.96364-1.76349-6,2.38069-3.89591,3.32946-4.32293,7.88413-3.33545,2.28448.49529,4.53514,1.14541,6.81638,1.65739,1.73227.38878,2.72717-.25172,2.63942-1.963C50.25009,19.74333,50.61468,18.31728,50.66706,16.84678ZM11.77894,25.04621c-1.26031-.07559-2.11584-.168-2.97036-.15934a.539.539,0,0,0-.5148.74189c.39929,1.13891,3.50714,2.47761,4.16677,1.66986,1.40467-1.72006,2.56762-.77766,3.72819.0857.57186.42541.93145,1.15027,1.73583,1.24564.61169.07252,1.3651.16485,1.6853-.41321.40954-.73935-.36616-1.09433-.85523-1.34512A13.64025,13.64025,0,0,0,11.77894,25.04621Zm30.9776,1.06259c-2.0276-.49718-4.02846.94525-6.21153,1.63114a.516.516,0,0,0-.3409.80255.93549.93549,0,0,0,.65721.23,2.44506,2.44506,0,0,0,1.98211-.6855c1.19549-1.18,2.51058-1.9745,4.11789-.58392.73668.63735,1.36174-.0508,2.016-.25693.355-.11185.73358-.38539.57678-.75564-.09092-.2147-.57314-.32622-.894-.36616A18.459,18.459,0,0,0,42.75654,26.1088Z"/></svg>