<svg xmlns="http://www.w3.org/2000/svg" xml:space="preserve" style="enable-background:new 0 0 600 600" viewBox="0 0 600 600"><path d="M234.2 64.4c-10.8-6.1-21-3.7-28.9 5.8a68 68 0 0 0-11.9 24.2l-1.6 5.6h83L251 76.8c-5-4.8-10.8-9-16.8-12.4zM351 69.1c-5.6 1.2-8.2 5.6-6.6 11.2.7 2.3 1.8 4.6 3.1 6.6 2 3 4.5 5.5 6.2 8.5a62 62 0 0 1 2.6 4.6h43l-18.2-21.5c-8.2-9.7-18.4-11.9-30-9.4z" style="fill:#2ecc71"/><path d="M296.8 60.3c-3.3-4-5.7-8.6-8.7-12.8A75.5 75.5 0 0 0 268.8 29c-15.8-10.5-31.4-21.3-49-29h-5.5a25.8 25.8 0 0 0-16 12.7c-6.2 10.4-12.6 20.7-18 31.5-8 16.5-15.2 33.5-22.9 50.2-.8 1.8-1.3 3.7-1.5 5.6h23.9c3.4-12.8 6.8-25.6 10.6-38.3a65.5 65.5 0 0 1 7.2-15.6c7.5-12 19.4-15.3 32.4-9.4a69 69 0 0 1 22.3 16.7c14.2 15.5 28.3 31 42.3 46.6h39.1c-7-7-13.9-14-20.7-21.1-5.7-6-11-12.2-16.2-18.6z" style="fill:#2ecc71"/><path d="M424.6 192c-1.2-.6-2.4-1.3-3.7-1.7-4.4-1.3-7.7.5-8.3 5l-.7 4.7h19.3c.2-2.9-2-5.1-6.6-8zM167.4 117.5a7 7 0 0 0 9-4.7c.5-1.5.7-3.2 1.2-4.8l2.2-8h-24c-.6 7.6 3.8 15 11.6 17.5z" style="fill:#f1c40f"/><path d="M409.2 170.9c7.8-3.4 14-8.5 19.5-14.8 6.7-7.6 6.5-14.3-.1-22L399.3 100h-43c.8 1.8 1.6 3.7 2.2 5.5.9 3.2-2.2 8.3-5.2 9.5-3 1.2-5-1-7-2.6-.9-.6-1.6-1.4-2.3-2.1L333.7 100h-39.1l28.1 31.3c2.3 2.5 3.7 5.8 5.2 8.9.4.7-.2 2.4-.8 3-3 2.2-6.7 1.6-9.7-1.4L274.9 100h-83.1c-1.7 5.8-3 11.7-4.8 17.5-2.3 8.1-8 11.5-16.4 10.6a64 64 0 0 1-21.3-5.7c-2-1-4.1-1.5-6.2-1.9-6.4-1.2-11.4 1.2-14.3 7-1.3 2.7-2 5.7-2.9 8.5a27 27 0 0 1-9.7 14.6 33 33 0 0 0-12.1 38.4c1.2 3.8 2.8 7.5 4.7 11h126.5a31 31 0 0 0-11.4-11.7c-7.6-4.6-16-7-24.6-8.6-5.2-1-10.7-.5-15.3-4 2.4-2.4 5.1-3.6 8.7-3.5 4.6 0 9.2-.5 13.8-1 16.4-1.5 30.8 1 42.3 14.8 10 12 21.8 11 31.6-1.4a33.4 33.4 0 0 1 26.2-13.5c9.7-.3 19.4-.2 29 0 2.2 0 4.5 1 6.5 1.8.8.4 1.7 2 1.6 2.9 0 1-1.2 2-2 2.6-1 .5-2.3.5-3.4.6l-16 1.2a38.2 38.2 0 0 0-30.6 19.8H393c-1.2-14.8 3.7-23.8 16.2-29.1z" style="fill:#f1c40f"/><path d="M417.4 272a42 42 0 0 0 2-41.3c-1-2-.8-4.9 0-7a53.6 53.6 0 0 1 8.2-16.4c2.3-3 3.6-5.3 3.6-7.3H412c-.9 6.8-1.7 13.6-2.3 20.5-.5 5-3.8 7-8.3 4.5a11.7 11.7 0 0 1-6-8.6c-.8-5-1.7-10.1-2.2-15.3l-.1-1.1H291.7a15 15 0 0 0-.5 10.5c3.2 10 6.8 20 11 29.8 3.8 8.8 10.2 16 19.4 19.2a154 154 0 0 0 26.8 7 31.5 31.5 0 0 0 30.5-10.1c2.9-3.3 5-7.2 7.4-11 2.6-4 7.5-5.3 10.5-2.4 3.1 2.9 4.7 6.7 3.9 10.9a33.7 33.7 0 0 1-21.8 26.4c-28 10.4-53 4.1-74.9-15.5a83.2 83.2 0 0 1-17.4-23.7c-3.5-6.7-7-13.3-11-19.7-3.1-5-8.4-5.3-12.8-1.2-1 1-2 2.1-2.7 3.3-2.6 4.4-4.9 8.9-7.5 13.2-5.7 9.6-11 19.6-17.4 28.7a59.2 59.2 0 0 1-52.6 26.8c-5-.1-10 3.2-11.3 7.8H398c1.8-2.8 3.8-5.5 5.9-8.2 5-6.2 9.5-12.9 13.6-19.8z" style="fill:#e67e22"/><path d="M158.5 265.2c3 3.8 6.5 6.3 11 7.5 14.7 3.9 28.5 1.4 41.2-6.5a58.2 58.2 0 0 0 28.1-49.7c.3-6.1-.9-11.7-3.5-16.5H108.8c2.7 5 6 9.8 9.5 14.4 13.3 17 26.9 33.9 40.2 50.8z" style="fill:#e67e22"/><path d="M383.7 342.2c1-15.6 5.9-29.5 14.2-42.2H171.3v.2a78.4 78.4 0 0 0-2.6 14 89 89 0 0 0 14 54.5 72.5 72.5 0 0 0 34.9 31.2l.1.1h118.8a234 234 0 0 0 16.7-8.8 58.4 58.4 0 0 0 30.5-49z" style="fill:#e74c3c"/><path d="M290.6 415.8c16-3.4 31.3-8.8 45.9-15.8H217.7c13.2 5.2 26.5 9.8 40 14.1 10.7 3.4 21.9 4 33 1.7zM537.8 485.2l-.1-1.5c-.9-7-5-12.5-9.1-17.9-14.8-19-34-31.7-56-40.9-22.2-9.3-45.6-15-68.6-21.9a11 11 0 0 0-5.5 0c-6.4 1.6-10 6.1-11.7 12-4.8 17.8-12.7 34.1-23 49.2-4.7 6.7-10 13.2-15.9 18.9-15.6 15-34.7 16.1-52.5 3.8a98.8 98.8 0 0 1-20.3-19.7 108 108 0 0 0-9.2-10.4c-4-3.7-8.6-4.3-13.4-1.4-3.2 2-6.4 4-9.3 6.5a374.9 374.9 0 0 0-17 16.2c-6.7 7-13 14.3-18.9 21.9h323.5l.3-.3c3.8-3.8 6.6-8.2 6.7-14.5z" style="fill:#8e44ad"/><path d="M358.2 416.2c-1-.8-2.7-1.3-3.9-1a166.7 166.7 0 0 0-66.3 28.4c-4.2 3-5.7 8.6-3.8 13.2a37.2 37.2 0 0 0 33.7 21.8 25 25 0 0 0 15.8-5.6 83.4 83.4 0 0 0 29.1-44.7c1.5-5.5-.6-9-4.6-12.1z" style="fill:#8e44ad"/><path d="M175.5 551a12.2 12.2 0 0 0 3 14.3c1.8 1.7 3.5 3.4 5.5 4.6 6.9 4.5 14 8.6 20.9 13 6.7 4.4 13.9 6.1 21.9 6.3 24.8.5 49.4 3.7 73.7 9 3.7.7 7.5 1.7 11.2 1.8 4.4 0 8.9-.4 13.2-1.1 5-1 10.2-1.8 14.8-3.7 14.2-6 28-12.7 42-18.5 22.5-9.2 45.4-17.3 67.7-26.9a472.1 472.1 0 0 0 72.5-42c3.2-2.2 6.1-5 9-7.8H207.2a360.4 360.4 0 0 0-24 35.6c-2.9 5-5.6 10-7.8 15.3z" style="fill:#3498db"/></svg>